<mxfile host="Electron" agent="Mozilla/5.0 (X11; Linux x86_64) AppleWebKit/537.36 (KHTML, like Gecko) draw.io/27.0.5 Chrome/134.0.6998.205 Electron/35.3.0 Safari/537.36" version="27.0.5" pages="12">
  <diagram name="Đăng nhập" id="lht2yAqTie1bBLS5vPWG">
    <mxGraphModel dx="1600" dy="992" grid="1" gridSize="12" guides="1" tooltips="1" connect="1" arrows="1" fold="1" page="1" pageScale="1" pageWidth="850" pageHeight="1100" math="0" shadow="0">
      <root>
        <mxCell id="0" />
        <mxCell id="1" parent="0" />
        <mxCell id="PMn3jfaiq3h9iqN9dBIE-18" value="User" style="shape=umlActor;verticalLabelPosition=bottom;verticalAlign=top;html=1;fontSize=14;" parent="1" vertex="1">
          <mxGeometry x="210" y="132" width="30" height="60" as="geometry" />
        </mxCell>
        <mxCell id="PMn3jfaiq3h9iqN9dBIE-20" value="" style="endArrow=none;dashed=1;html=1;rounded=0;fontSize=14;" parent="1" edge="1">
          <mxGeometry width="50" height="50" relative="1" as="geometry">
            <mxPoint x="225" y="888" as="sourcePoint" />
            <mxPoint x="225" y="220" as="targetPoint" />
          </mxGeometry>
        </mxCell>
        <mxCell id="PMn3jfaiq3h9iqN9dBIE-21" value="" style="html=1;points=[[0,0,0,0,5],[0,1,0,0,-5],[1,0,0,0,5],[1,1,0,0,-5]];perimeter=orthogonalPerimeter;outlineConnect=0;targetShapes=umlLifeline;portConstraint=eastwest;newEdgeStyle={&quot;curved&quot;:0,&quot;rounded&quot;:0};fontSize=14;" parent="1" vertex="1">
          <mxGeometry x="220" y="230" width="10" height="430" as="geometry" />
        </mxCell>
        <mxCell id="PMn3jfaiq3h9iqN9dBIE-23" value="" style="shape=umlBoundary;whiteSpace=wrap;html=1;fontSize=14;" parent="1" vertex="1">
          <mxGeometry x="335" y="122" width="85" height="70" as="geometry" />
        </mxCell>
        <mxCell id="PMn3jfaiq3h9iqN9dBIE-27" value="" style="endArrow=none;dashed=1;html=1;rounded=0;fontSize=14;" parent="1" edge="1">
          <mxGeometry width="50" height="50" relative="1" as="geometry">
            <mxPoint x="380" y="888" as="sourcePoint" />
            <mxPoint x="380" y="220" as="targetPoint" />
          </mxGeometry>
        </mxCell>
        <mxCell id="SNFBgIjMP2W_krhLGGVK-3" value="" style="endArrow=none;dashed=1;html=1;rounded=0;fontSize=14;" parent="1" edge="1">
          <mxGeometry width="50" height="50" relative="1" as="geometry">
            <mxPoint x="378.11" y="623" as="sourcePoint" />
            <mxPoint x="378.11" y="663" as="targetPoint" />
          </mxGeometry>
        </mxCell>
        <mxCell id="SNFBgIjMP2W_krhLGGVK-4" value="" style="html=1;points=[[0,0,0,0,5],[0,1,0,0,-5],[1,0,0,0,5],[1,1,0,0,-5]];perimeter=orthogonalPerimeter;outlineConnect=0;targetShapes=umlLifeline;portConstraint=eastwest;newEdgeStyle={&quot;curved&quot;:0,&quot;rounded&quot;:0};fontSize=14;" parent="1" vertex="1">
          <mxGeometry x="375" y="230" width="10" height="430" as="geometry" />
        </mxCell>
        <mxCell id="SNFBgIjMP2W_krhLGGVK-5" value="Enter phone number/&lt;br&gt;password" style="html=1;verticalAlign=bottom;endArrow=block;curved=0;rounded=0;fontSize=14;" parent="1" source="PMn3jfaiq3h9iqN9dBIE-21" target="SNFBgIjMP2W_krhLGGVK-4" edge="1">
          <mxGeometry width="80" relative="1" as="geometry">
            <mxPoint x="370" y="380" as="sourcePoint" />
            <mxPoint x="450" y="380" as="targetPoint" />
            <Array as="points">
              <mxPoint x="300" y="260" />
            </Array>
          </mxGeometry>
        </mxCell>
        <mxCell id="SNFBgIjMP2W_krhLGGVK-7" value="Show alert" style="html=1;verticalAlign=bottom;endArrow=block;curved=0;rounded=0;fontSize=14;" parent="1" source="SNFBgIjMP2W_krhLGGVK-4" target="PMn3jfaiq3h9iqN9dBIE-21" edge="1">
          <mxGeometry width="80" relative="1" as="geometry">
            <mxPoint x="370" y="290" as="sourcePoint" />
            <mxPoint x="480" y="240" as="targetPoint" />
            <Array as="points">
              <mxPoint x="300" y="330" />
            </Array>
          </mxGeometry>
        </mxCell>
        <mxCell id="SNFBgIjMP2W_krhLGGVK-12" value="checkValid()" style="html=1;align=left;spacingLeft=2;endArrow=block;rounded=0;edgeStyle=orthogonalEdgeStyle;curved=0;rounded=0;fontSize=14;" parent="1" source="SNFBgIjMP2W_krhLGGVK-4" target="SNFBgIjMP2W_krhLGGVK-4" edge="1">
          <mxGeometry relative="1" as="geometry">
            <mxPoint x="470" y="230" as="sourcePoint" />
            <Array as="points">
              <mxPoint x="405" y="270" />
              <mxPoint x="405" y="290" />
            </Array>
            <mxPoint x="475" y="260.02857142857135" as="targetPoint" />
          </mxGeometry>
        </mxCell>
        <mxCell id="pHxQ1LcWUf-RGRotZ4_d-1" value="checkValid()" style="shape=umlFrame;whiteSpace=wrap;html=1;pointerEvents=0;width=90;height=30;fontSize=14;" parent="1" vertex="1">
          <mxGeometry x="90" y="300" width="1110" height="408" as="geometry" />
        </mxCell>
        <mxCell id="pHxQ1LcWUf-RGRotZ4_d-3" value="" style="endArrow=none;dashed=1;html=1;rounded=0;entryX=1.003;entryY=0.159;entryDx=0;entryDy=0;entryPerimeter=0;fontSize=14;" parent="1" target="pHxQ1LcWUf-RGRotZ4_d-1" edge="1">
          <mxGeometry width="50" height="50" relative="1" as="geometry">
            <mxPoint x="90" y="360" as="sourcePoint" />
            <mxPoint x="600" y="380" as="targetPoint" />
          </mxGeometry>
        </mxCell>
        <mxCell id="pHxQ1LcWUf-RGRotZ4_d-4" value="[Invalid]" style="text;html=1;align=center;verticalAlign=middle;resizable=0;points=[];autosize=1;strokeColor=none;fillColor=none;fontSize=14;" parent="1" vertex="1">
          <mxGeometry x="84" y="325" width="72" height="36" as="geometry" />
        </mxCell>
        <mxCell id="pHxQ1LcWUf-RGRotZ4_d-5" value="[Valid]" style="text;html=1;align=center;verticalAlign=middle;resizable=0;points=[];autosize=1;strokeColor=none;fillColor=none;fontSize=14;" parent="1" vertex="1">
          <mxGeometry x="90" y="355" width="60" height="36" as="geometry" />
        </mxCell>
        <mxCell id="pHxQ1LcWUf-RGRotZ4_d-6" value="Choose login" style="html=1;verticalAlign=bottom;endArrow=block;curved=0;rounded=0;fontSize=14;" parent="1" source="PMn3jfaiq3h9iqN9dBIE-21" target="SNFBgIjMP2W_krhLGGVK-4" edge="1">
          <mxGeometry width="80" relative="1" as="geometry">
            <mxPoint x="400" y="420" as="sourcePoint" />
            <mxPoint x="480" y="420" as="targetPoint" />
            <Array as="points">
              <mxPoint x="300" y="390" />
            </Array>
          </mxGeometry>
        </mxCell>
        <mxCell id="pHxQ1LcWUf-RGRotZ4_d-7" value="" style="ellipse;shape=umlControl;whiteSpace=wrap;html=1;fontSize=14;" parent="1" vertex="1">
          <mxGeometry x="505" y="110" width="70" height="80" as="geometry" />
        </mxCell>
        <mxCell id="pHxQ1LcWUf-RGRotZ4_d-8" value="&lt;span style=&quot;text-wrap-mode: wrap;&quot;&gt;:UserController&lt;/span&gt;" style="text;html=1;align=center;verticalAlign=middle;resizable=0;points=[];autosize=1;strokeColor=none;fillColor=none;fontSize=14;" parent="1" vertex="1">
          <mxGeometry x="480" y="187" width="120" height="36" as="geometry" />
        </mxCell>
        <mxCell id="pHxQ1LcWUf-RGRotZ4_d-10" value="&lt;span style=&quot;text-wrap-mode: wrap;&quot;&gt;:LoginForm&lt;/span&gt;" style="text;html=1;align=center;verticalAlign=middle;resizable=0;points=[];autosize=1;strokeColor=none;fillColor=none;fontSize=14;" parent="1" vertex="1">
          <mxGeometry x="332" y="189" width="96" height="36" as="geometry" />
        </mxCell>
        <mxCell id="pHxQ1LcWUf-RGRotZ4_d-11" value="" style="endArrow=none;dashed=1;html=1;rounded=0;fontSize=14;" parent="1" target="pHxQ1LcWUf-RGRotZ4_d-8" edge="1">
          <mxGeometry width="50" height="50" relative="1" as="geometry">
            <mxPoint x="540" y="888" as="sourcePoint" />
            <mxPoint x="445" y="308" as="targetPoint" />
          </mxGeometry>
        </mxCell>
        <mxCell id="pHxQ1LcWUf-RGRotZ4_d-12" value="checkLoginInfo()" style="html=1;verticalAlign=bottom;endArrow=block;curved=0;rounded=0;fontSize=14;" parent="1" edge="1">
          <mxGeometry width="80" relative="1" as="geometry">
            <mxPoint x="385" y="419.5" as="sourcePoint" />
            <mxPoint x="535" y="419.5" as="targetPoint" />
            <Array as="points">
              <mxPoint x="470" y="419.5" />
            </Array>
          </mxGeometry>
        </mxCell>
        <mxCell id="pHxQ1LcWUf-RGRotZ4_d-13" value="" style="html=1;points=[[0,0,0,0,5],[0,1,0,0,-5],[1,0,0,0,5],[1,1,0,0,-5]];perimeter=orthogonalPerimeter;outlineConnect=0;targetShapes=umlLifeline;portConstraint=eastwest;newEdgeStyle={&quot;curved&quot;:0,&quot;rounded&quot;:0};fontSize=14;" parent="1" vertex="1">
          <mxGeometry x="535" y="408" width="10" height="204" as="geometry" />
        </mxCell>
        <mxCell id="pHxQ1LcWUf-RGRotZ4_d-17" value="" style="endArrow=none;dashed=1;html=1;rounded=0;fontSize=14;" parent="1" edge="1">
          <mxGeometry width="50" height="50" relative="1" as="geometry">
            <mxPoint x="900" y="636" as="sourcePoint" />
            <mxPoint x="902" y="228" as="targetPoint" />
          </mxGeometry>
        </mxCell>
        <mxCell id="pHxQ1LcWUf-RGRotZ4_d-19" value="get(phonenumber, password)" style="html=1;verticalAlign=bottom;endArrow=block;curved=0;rounded=0;fontSize=14;" parent="1" target="pHxQ1LcWUf-RGRotZ4_d-18" edge="1">
          <mxGeometry relative="1" as="geometry">
            <mxPoint x="543" y="492.00000000000006" as="sourcePoint" />
            <mxPoint x="1003" y="492.00000000000006" as="targetPoint" />
          </mxGeometry>
        </mxCell>
        <mxCell id="pHxQ1LcWUf-RGRotZ4_d-20" value="return(phonenumber, password)" style="html=1;verticalAlign=bottom;endArrow=open;dashed=1;endSize=8;curved=0;rounded=0;fontSize=14;" parent="1" source="pHxQ1LcWUf-RGRotZ4_d-18" edge="1">
          <mxGeometry relative="1" as="geometry">
            <mxPoint x="545" y="548" as="targetPoint" />
            <Array as="points">
              <mxPoint x="660" y="548" />
            </Array>
            <mxPoint x="1002.9999999999995" y="546" as="sourcePoint" />
          </mxGeometry>
        </mxCell>
        <mxCell id="pHxQ1LcWUf-RGRotZ4_d-21" value="checkloginInfo()" style="shape=umlFrame;whiteSpace=wrap;html=1;pointerEvents=0;width=110;height=30;fontSize=14;" parent="1" vertex="1">
          <mxGeometry x="100" y="400" width="1064" height="284" as="geometry" />
        </mxCell>
        <mxCell id="pHxQ1LcWUf-RGRotZ4_d-22" value="[Invalid]" style="text;html=1;align=center;verticalAlign=middle;resizable=0;points=[];autosize=1;strokeColor=none;fillColor=none;fontSize=14;" parent="1" vertex="1">
          <mxGeometry x="104" y="427" width="72" height="36" as="geometry" />
        </mxCell>
        <mxCell id="pHxQ1LcWUf-RGRotZ4_d-23" value="[Invalid]" style="html=1;verticalAlign=bottom;endArrow=open;dashed=1;endSize=8;curved=0;rounded=0;fontSize=14;" parent="1" edge="1">
          <mxGeometry relative="1" as="geometry">
            <mxPoint x="383.11" y="557" as="targetPoint" />
            <mxPoint x="533.11" y="557" as="sourcePoint" />
            <Array as="points">
              <mxPoint x="454.11" y="557" />
            </Array>
          </mxGeometry>
        </mxCell>
        <mxCell id="pHxQ1LcWUf-RGRotZ4_d-26" value="Show failue login" style="html=1;verticalAlign=bottom;endArrow=block;curved=0;rounded=0;fontSize=14;" parent="1" edge="1">
          <mxGeometry width="80" relative="1" as="geometry">
            <mxPoint x="373.11" y="569" as="sourcePoint" />
            <mxPoint x="228.11" y="569" as="targetPoint" />
            <Array as="points">
              <mxPoint x="298.11" y="569" />
            </Array>
          </mxGeometry>
        </mxCell>
        <mxCell id="pHxQ1LcWUf-RGRotZ4_d-27" value="[Valid]" style="html=1;verticalAlign=bottom;endArrow=open;dashed=1;endSize=8;curved=0;rounded=0;fontSize=14;" parent="1" edge="1">
          <mxGeometry relative="1" as="geometry">
            <mxPoint x="383.11" y="603" as="targetPoint" />
            <mxPoint x="533.11" y="603" as="sourcePoint" />
            <Array as="points">
              <mxPoint x="458.11" y="603" />
            </Array>
          </mxGeometry>
        </mxCell>
        <mxCell id="pHxQ1LcWUf-RGRotZ4_d-28" value="Show success login" style="html=1;verticalAlign=bottom;endArrow=block;curved=0;rounded=0;fontSize=14;" parent="1" edge="1">
          <mxGeometry width="80" relative="1" as="geometry">
            <mxPoint x="373.11" y="633" as="sourcePoint" />
            <mxPoint x="228.11" y="633" as="targetPoint" />
            <Array as="points">
              <mxPoint x="308.11" y="633" />
            </Array>
          </mxGeometry>
        </mxCell>
        <mxCell id="pHxQ1LcWUf-RGRotZ4_d-29" value="" style="endArrow=none;dashed=1;html=1;rounded=0;entryX=0.998;entryY=0.552;entryDx=0;entryDy=0;entryPerimeter=0;exitX=0.002;exitY=0.552;exitDx=0;exitDy=0;exitPerimeter=0;fontSize=14;" parent="1" edge="1">
          <mxGeometry width="50" height="50" relative="1" as="geometry">
            <mxPoint x="99.99799999999992" y="579.96" as="sourcePoint" />
            <mxPoint x="1040.222" y="579.96" as="targetPoint" />
          </mxGeometry>
        </mxCell>
        <mxCell id="pHxQ1LcWUf-RGRotZ4_d-30" value="[Valid]" style="text;html=1;align=center;verticalAlign=middle;resizable=0;points=[];autosize=1;strokeColor=none;fillColor=none;fontSize=14;" parent="1" vertex="1">
          <mxGeometry x="108.11" y="580" width="60" height="36" as="geometry" />
        </mxCell>
        <mxCell id="pHxQ1LcWUf-RGRotZ4_d-31" value="Ref" style="shape=umlFrame;whiteSpace=wrap;html=1;pointerEvents=0;fontSize=14;" parent="1" vertex="1">
          <mxGeometry x="168.11" y="737" width="995.89" height="40" as="geometry" />
        </mxCell>
        <mxCell id="pHxQ1LcWUf-RGRotZ4_d-32" value="Quên mật khẩu" style="text;html=1;align=center;verticalAlign=middle;resizable=0;points=[];autosize=1;strokeColor=none;fillColor=none;fontSize=14;" parent="1" vertex="1">
          <mxGeometry x="567.11" y="739" width="120" height="36" as="geometry" />
        </mxCell>
        <mxCell id="pHxQ1LcWUf-RGRotZ4_d-36" value="" style="shape=umlBoundary;whiteSpace=wrap;html=1;fontSize=14;" parent="1" vertex="1">
          <mxGeometry x="850" y="110" width="100" height="80" as="geometry" />
        </mxCell>
        <mxCell id="pHxQ1LcWUf-RGRotZ4_d-37" value="&lt;span style=&quot;text-wrap-mode: wrap;&quot;&gt;:UserDatabase&lt;/span&gt;" style="text;html=1;align=center;verticalAlign=middle;resizable=0;points=[];autosize=1;strokeColor=none;fillColor=none;fontSize=14;" parent="1" vertex="1">
          <mxGeometry x="840" y="197" width="120" height="36" as="geometry" />
        </mxCell>
        <mxCell id="pHxQ1LcWUf-RGRotZ4_d-38" value=":UserDatabase" style="shape=umlActor;verticalLabelPosition=bottom;verticalAlign=top;html=1;fontSize=14;" parent="1" vertex="1">
          <mxGeometry x="1102" y="130" width="30" height="60" as="geometry" />
        </mxCell>
        <mxCell id="pHxQ1LcWUf-RGRotZ4_d-39" value="" style="endArrow=none;dashed=1;html=1;rounded=0;fontSize=14;" parent="1" edge="1">
          <mxGeometry width="50" height="50" relative="1" as="geometry">
            <mxPoint x="1114" y="898" as="sourcePoint" />
            <mxPoint x="1114" y="228" as="targetPoint" />
          </mxGeometry>
        </mxCell>
        <mxCell id="pHxQ1LcWUf-RGRotZ4_d-46" value="" style="html=1;points=[[0,0,0,0,5],[0,1,0,0,-5],[1,0,0,0,5],[1,1,0,0,-5]];perimeter=orthogonalPerimeter;outlineConnect=0;targetShapes=umlLifeline;portConstraint=eastwest;newEdgeStyle={&quot;curved&quot;:0,&quot;rounded&quot;:0};fontSize=14;" parent="1" vertex="1">
          <mxGeometry x="1112" y="482" width="10" height="80" as="geometry" />
        </mxCell>
        <mxCell id="pHxQ1LcWUf-RGRotZ4_d-47" value="&lt;span&gt;get(phonenumber, password)&lt;/span&gt;" style="html=1;verticalAlign=bottom;endArrow=block;curved=0;rounded=0;fontSize=14;" parent="1" source="pHxQ1LcWUf-RGRotZ4_d-18" target="pHxQ1LcWUf-RGRotZ4_d-46" edge="1">
          <mxGeometry relative="1" as="geometry">
            <mxPoint x="980" y="445" as="sourcePoint" />
            <Array as="points">
              <mxPoint x="970" y="504" />
            </Array>
          </mxGeometry>
        </mxCell>
        <mxCell id="pHxQ1LcWUf-RGRotZ4_d-48" value="&lt;span&gt;return(phonenumber, password)&lt;/span&gt;" style="html=1;verticalAlign=bottom;endArrow=open;dashed=1;endSize=8;curved=0;rounded=0;fontSize=14;" parent="1" edge="1">
          <mxGeometry relative="1" as="geometry">
            <mxPoint x="904.9999999999995" y="540" as="targetPoint" />
            <Array as="points">
              <mxPoint x="982" y="540" />
            </Array>
            <mxPoint x="1112" y="540" as="sourcePoint" />
          </mxGeometry>
        </mxCell>
        <mxCell id="Pweeal7oUAN1dTgSv4Ve-1" value="Ref" style="shape=umlFrame;whiteSpace=wrap;html=1;pointerEvents=0;fontSize=14;" parent="1" vertex="1">
          <mxGeometry x="166.11" y="797" width="997.89" height="40" as="geometry" />
        </mxCell>
        <mxCell id="Pweeal7oUAN1dTgSv4Ve-2" value="Thay đổi thông tin" style="text;html=1;align=center;verticalAlign=middle;resizable=0;points=[];autosize=1;strokeColor=none;fillColor=none;fontSize=14;" parent="1" vertex="1">
          <mxGeometry x="561.11" y="799" width="132" height="36" as="geometry" />
        </mxCell>
        <mxCell id="Pweeal7oUAN1dTgSv4Ve-3" value="Ref" style="shape=umlFrame;whiteSpace=wrap;html=1;pointerEvents=0;fontSize=14;" parent="1" vertex="1">
          <mxGeometry x="166.11" y="857" width="997.89" height="40" as="geometry" />
        </mxCell>
        <mxCell id="Pweeal7oUAN1dTgSv4Ve-4" value="Xóa tài khoản" style="text;html=1;align=center;verticalAlign=middle;resizable=0;points=[];autosize=1;strokeColor=none;fillColor=none;fontSize=14;" parent="1" vertex="1">
          <mxGeometry x="575.11" y="859" width="108" height="36" as="geometry" />
        </mxCell>
        <mxCell id="0V_l8xW3UH3vBMOlcoQp-1" value="" style="endArrow=none;dashed=1;html=1;rounded=0;fontSize=14;exitX=0.595;exitY=1.04;exitDx=0;exitDy=0;exitPerimeter=0;" edge="1" parent="1" source="Pweeal7oUAN1dTgSv4Ve-3">
          <mxGeometry width="50" height="50" relative="1" as="geometry">
            <mxPoint x="760" y="886" as="sourcePoint" />
            <mxPoint x="760" y="240" as="targetPoint" />
          </mxGeometry>
        </mxCell>
        <mxCell id="0V_l8xW3UH3vBMOlcoQp-2" value="" style="html=1;points=[[0,0,0,0,5],[0,1,0,0,-5],[1,0,0,0,5],[1,1,0,0,-5]];perimeter=orthogonalPerimeter;outlineConnect=0;targetShapes=umlLifeline;portConstraint=eastwest;newEdgeStyle={&quot;curved&quot;:0,&quot;rounded&quot;:0};fontSize=14;" vertex="1" parent="1">
          <mxGeometry x="755" y="420" width="10" height="48" as="geometry" />
        </mxCell>
        <mxCell id="0V_l8xW3UH3vBMOlcoQp-4" value=":User" style="text;html=1;align=center;verticalAlign=middle;resizable=0;points=[];autosize=1;strokeColor=none;fillColor=none;fontSize=14;" vertex="1" parent="1">
          <mxGeometry x="728" y="197" width="60" height="36" as="geometry" />
        </mxCell>
        <mxCell id="0V_l8xW3UH3vBMOlcoQp-5" value="createUser()" style="html=1;verticalAlign=bottom;endArrow=block;curved=0;rounded=0;fontSize=14;" edge="1" parent="1" target="0V_l8xW3UH3vBMOlcoQp-2">
          <mxGeometry width="80" relative="1" as="geometry">
            <mxPoint x="545" y="430" as="sourcePoint" />
            <mxPoint x="713" y="430" as="targetPoint" />
            <Array as="points">
              <mxPoint x="648" y="430" />
            </Array>
          </mxGeometry>
        </mxCell>
        <mxCell id="Qm1Torl5pLxjE5RHPwLs-1" value="new user" style="html=1;verticalAlign=bottom;endArrow=open;dashed=1;endSize=8;curved=0;rounded=0;fontSize=14;" edge="1" parent="1" source="0V_l8xW3UH3vBMOlcoQp-2" target="pHxQ1LcWUf-RGRotZ4_d-13">
          <mxGeometry relative="1" as="geometry">
            <mxPoint x="545" y="456" as="targetPoint" />
            <mxPoint x="695" y="456" as="sourcePoint" />
            <Array as="points">
              <mxPoint x="616" y="456" />
            </Array>
          </mxGeometry>
        </mxCell>
        <mxCell id="Qm1Torl5pLxjE5RHPwLs-2" value="" style="endArrow=none;dashed=1;html=1;rounded=0;fontSize=14;" edge="1" parent="1">
          <mxGeometry width="50" height="50" relative="1" as="geometry">
            <mxPoint x="900" y="900" as="sourcePoint" />
            <mxPoint x="900.11" y="567" as="targetPoint" />
          </mxGeometry>
        </mxCell>
        <mxCell id="pHxQ1LcWUf-RGRotZ4_d-18" value="" style="html=1;points=[[0,0,0,0,5],[0,1,0,0,-5],[1,0,0,0,5],[1,1,0,0,-5]];perimeter=orthogonalPerimeter;outlineConnect=0;targetShapes=umlLifeline;portConstraint=eastwest;newEdgeStyle={&quot;curved&quot;:0,&quot;rounded&quot;:0};fontSize=14;" parent="1" vertex="1">
          <mxGeometry x="895" y="480" width="10" height="78" as="geometry" />
        </mxCell>
        <mxCell id="Qm1Torl5pLxjE5RHPwLs-4" value="" style="ellipse;shape=umlEntity;whiteSpace=wrap;html=1;fontSize=14;" vertex="1" parent="1">
          <mxGeometry x="718" y="117" width="80" height="80" as="geometry" />
        </mxCell>
      </root>
    </mxGraphModel>
  </diagram>
  <diagram id="lVGUGqA9dGwViOQ1zjeg" name="Đổi mật khẩu">
    <mxGraphModel dx="1360" dy="843" grid="1" gridSize="12" guides="1" tooltips="1" connect="1" arrows="1" fold="1" page="1" pageScale="1" pageWidth="850" pageHeight="1100" math="0" shadow="0">
      <root>
        <mxCell id="0" />
        <mxCell id="1" parent="0" />
        <mxCell id="FCo0-ONp6flalBKuaQ2e-1" value="User" style="shape=umlActor;verticalLabelPosition=bottom;verticalAlign=top;html=1;fontSize=14;" parent="1" vertex="1">
          <mxGeometry x="192" y="133" width="30" height="60" as="geometry" />
        </mxCell>
        <mxCell id="FCo0-ONp6flalBKuaQ2e-2" value="" style="endArrow=none;dashed=1;html=1;rounded=0;fontSize=14;" parent="1" edge="1">
          <mxGeometry width="50" height="50" relative="1" as="geometry">
            <mxPoint x="207" y="925" as="sourcePoint" />
            <mxPoint x="207" y="221" as="targetPoint" />
          </mxGeometry>
        </mxCell>
        <mxCell id="FCo0-ONp6flalBKuaQ2e-3" value="" style="html=1;points=[[0,0,0,0,5],[0,1,0,0,-5],[1,0,0,0,5],[1,1,0,0,-5]];perimeter=orthogonalPerimeter;outlineConnect=0;targetShapes=umlLifeline;portConstraint=eastwest;newEdgeStyle={&quot;curved&quot;:0,&quot;rounded&quot;:0};fontSize=14;" parent="1" vertex="1">
          <mxGeometry x="202" y="231" width="10" height="574" as="geometry" />
        </mxCell>
        <mxCell id="FCo0-ONp6flalBKuaQ2e-4" value="" style="shape=umlBoundary;whiteSpace=wrap;html=1;fontSize=14;" parent="1" vertex="1">
          <mxGeometry x="335" y="122" width="85" height="70" as="geometry" />
        </mxCell>
        <mxCell id="FCo0-ONp6flalBKuaQ2e-5" value="" style="endArrow=none;dashed=1;html=1;rounded=0;fontSize=14;" parent="1" edge="1">
          <mxGeometry width="50" height="50" relative="1" as="geometry">
            <mxPoint x="380" y="924" as="sourcePoint" />
            <mxPoint x="380" y="220" as="targetPoint" />
          </mxGeometry>
        </mxCell>
        <mxCell id="FCo0-ONp6flalBKuaQ2e-6" value="" style="endArrow=none;dashed=1;html=1;rounded=0;fontSize=14;" parent="1" target="FCo0-ONp6flalBKuaQ2e-7" edge="1">
          <mxGeometry width="50" height="50" relative="1" as="geometry">
            <mxPoint x="380" y="570" as="sourcePoint" />
            <mxPoint x="380" y="220" as="targetPoint" />
          </mxGeometry>
        </mxCell>
        <mxCell id="FCo0-ONp6flalBKuaQ2e-7" value="" style="html=1;points=[[0,0,0,0,5],[0,1,0,0,-5],[1,0,0,0,5],[1,1,0,0,-5]];perimeter=orthogonalPerimeter;outlineConnect=0;targetShapes=umlLifeline;portConstraint=eastwest;newEdgeStyle={&quot;curved&quot;:0,&quot;rounded&quot;:0};fontSize=14;" parent="1" vertex="1">
          <mxGeometry x="375" y="230" width="10" height="574" as="geometry" />
        </mxCell>
        <mxCell id="FCo0-ONp6flalBKuaQ2e-8" value="Enter phonenumber" style="html=1;verticalAlign=bottom;endArrow=block;curved=0;rounded=0;fontSize=14;" parent="1" source="FCo0-ONp6flalBKuaQ2e-3" target="FCo0-ONp6flalBKuaQ2e-7" edge="1">
          <mxGeometry width="80" relative="1" as="geometry">
            <mxPoint x="370" y="380" as="sourcePoint" />
            <mxPoint x="450" y="380" as="targetPoint" />
            <Array as="points">
              <mxPoint x="300" y="260" />
            </Array>
          </mxGeometry>
        </mxCell>
        <mxCell id="FCo0-ONp6flalBKuaQ2e-9" value="Show alert" style="html=1;verticalAlign=bottom;endArrow=block;curved=0;rounded=0;fontSize=14;" parent="1" source="FCo0-ONp6flalBKuaQ2e-7" target="FCo0-ONp6flalBKuaQ2e-3" edge="1">
          <mxGeometry width="80" relative="1" as="geometry">
            <mxPoint x="370" y="290" as="sourcePoint" />
            <mxPoint x="480" y="240" as="targetPoint" />
            <Array as="points">
              <mxPoint x="300" y="330" />
            </Array>
          </mxGeometry>
        </mxCell>
        <mxCell id="FCo0-ONp6flalBKuaQ2e-10" value="checkValid()" style="html=1;align=left;spacingLeft=2;endArrow=block;rounded=0;edgeStyle=orthogonalEdgeStyle;curved=0;rounded=0;fontSize=14;" parent="1" source="FCo0-ONp6flalBKuaQ2e-7" target="FCo0-ONp6flalBKuaQ2e-7" edge="1">
          <mxGeometry relative="1" as="geometry">
            <mxPoint x="470" y="230" as="sourcePoint" />
            <Array as="points">
              <mxPoint x="405" y="270" />
              <mxPoint x="405" y="290" />
            </Array>
            <mxPoint x="475" y="260.02857142857135" as="targetPoint" />
          </mxGeometry>
        </mxCell>
        <mxCell id="FCo0-ONp6flalBKuaQ2e-11" value="checkValid()" style="shape=umlFrame;whiteSpace=wrap;html=1;pointerEvents=0;width=90;height=30;fontSize=14;" parent="1" vertex="1">
          <mxGeometry x="90" y="300" width="822" height="540" as="geometry" />
        </mxCell>
        <mxCell id="FCo0-ONp6flalBKuaQ2e-12" value="" style="endArrow=none;dashed=1;html=1;rounded=0;fontSize=14;" parent="1" edge="1">
          <mxGeometry width="50" height="50" relative="1" as="geometry">
            <mxPoint x="90" y="360" as="sourcePoint" />
            <mxPoint x="912" y="360" as="targetPoint" />
          </mxGeometry>
        </mxCell>
        <mxCell id="FCo0-ONp6flalBKuaQ2e-13" value="[Invalid]" style="text;html=1;align=center;verticalAlign=middle;resizable=0;points=[];autosize=1;strokeColor=none;fillColor=none;fontSize=14;" parent="1" vertex="1">
          <mxGeometry x="84" y="325" width="72" height="36" as="geometry" />
        </mxCell>
        <mxCell id="FCo0-ONp6flalBKuaQ2e-14" value="[Valid]" style="text;html=1;align=center;verticalAlign=middle;resizable=0;points=[];autosize=1;strokeColor=none;fillColor=none;fontSize=14;" parent="1" vertex="1">
          <mxGeometry x="90" y="355" width="60" height="36" as="geometry" />
        </mxCell>
        <mxCell id="FCo0-ONp6flalBKuaQ2e-15" value="Choose send code" style="html=1;verticalAlign=bottom;endArrow=block;curved=0;rounded=0;fontSize=14;" parent="1" source="FCo0-ONp6flalBKuaQ2e-3" target="FCo0-ONp6flalBKuaQ2e-7" edge="1">
          <mxGeometry width="80" relative="1" as="geometry">
            <mxPoint x="400" y="420" as="sourcePoint" />
            <mxPoint x="480" y="420" as="targetPoint" />
            <Array as="points">
              <mxPoint x="300" y="390" />
            </Array>
          </mxGeometry>
        </mxCell>
        <mxCell id="FCo0-ONp6flalBKuaQ2e-16" value="" style="ellipse;shape=umlControl;whiteSpace=wrap;html=1;fontSize=14;" parent="1" vertex="1">
          <mxGeometry x="505" y="110" width="70" height="80" as="geometry" />
        </mxCell>
        <mxCell id="FCo0-ONp6flalBKuaQ2e-17" value="&lt;span style=&quot;text-wrap-mode: wrap;&quot;&gt;:UserController&lt;/span&gt;" style="text;html=1;align=center;verticalAlign=middle;resizable=0;points=[];autosize=1;strokeColor=none;fillColor=none;fontSize=14;" parent="1" vertex="1">
          <mxGeometry x="480" y="187" width="120" height="36" as="geometry" />
        </mxCell>
        <mxCell id="FCo0-ONp6flalBKuaQ2e-18" value="&lt;span style=&quot;text-wrap-mode: wrap;&quot;&gt;:NewPasswordForm&lt;/span&gt;" style="text;html=1;align=center;verticalAlign=middle;resizable=0;points=[];autosize=1;strokeColor=none;fillColor=none;fontSize=14;" parent="1" vertex="1">
          <mxGeometry x="302" y="189" width="156" height="36" as="geometry" />
        </mxCell>
        <mxCell id="FCo0-ONp6flalBKuaQ2e-19" value="" style="endArrow=none;dashed=1;html=1;rounded=0;fontSize=14;" parent="1" target="FCo0-ONp6flalBKuaQ2e-17" edge="1">
          <mxGeometry width="50" height="50" relative="1" as="geometry">
            <mxPoint x="540" y="924" as="sourcePoint" />
            <mxPoint x="445" y="308" as="targetPoint" />
          </mxGeometry>
        </mxCell>
        <mxCell id="FCo0-ONp6flalBKuaQ2e-20" value="sendCode()" style="html=1;verticalAlign=bottom;endArrow=block;curved=0;rounded=0;fontSize=14;" parent="1" source="FCo0-ONp6flalBKuaQ2e-7" target="FCo0-ONp6flalBKuaQ2e-21" edge="1">
          <mxGeometry width="80" relative="1" as="geometry">
            <mxPoint x="410" y="430" as="sourcePoint" />
            <mxPoint x="490" y="430" as="targetPoint" />
            <Array as="points">
              <mxPoint x="470" y="430" />
            </Array>
          </mxGeometry>
        </mxCell>
        <mxCell id="FCo0-ONp6flalBKuaQ2e-21" value="" style="html=1;points=[[0,0,0,0,5],[0,1,0,0,-5],[1,0,0,0,5],[1,1,0,0,-5]];perimeter=orthogonalPerimeter;outlineConnect=0;targetShapes=umlLifeline;portConstraint=eastwest;newEdgeStyle={&quot;curved&quot;:0,&quot;rounded&quot;:0};fontSize=14;" parent="1" vertex="1">
          <mxGeometry x="535" y="408" width="10" height="396" as="geometry" />
        </mxCell>
        <mxCell id="FCo0-ONp6flalBKuaQ2e-28" value="success" style="html=1;verticalAlign=bottom;endArrow=open;dashed=1;endSize=8;curved=0;rounded=0;fontSize=14;" parent="1" source="FCo0-ONp6flalBKuaQ2e-21" target="FCo0-ONp6flalBKuaQ2e-7" edge="1">
          <mxGeometry relative="1" as="geometry">
            <mxPoint x="555" y="485" as="targetPoint" />
            <mxPoint x="725" y="485" as="sourcePoint" />
            <Array as="points">
              <mxPoint x="456" y="492" />
            </Array>
          </mxGeometry>
        </mxCell>
        <mxCell id="FCo0-ONp6flalBKuaQ2e-29" value="Show send code success" style="html=1;verticalAlign=bottom;endArrow=block;curved=0;rounded=0;fontSize=14;" parent="1" source="FCo0-ONp6flalBKuaQ2e-7" target="FCo0-ONp6flalBKuaQ2e-3" edge="1">
          <mxGeometry width="80" relative="1" as="geometry">
            <mxPoint x="385" y="340" as="sourcePoint" />
            <mxPoint x="240" y="340" as="targetPoint" />
            <Array as="points">
              <mxPoint x="300" y="510" />
            </Array>
          </mxGeometry>
        </mxCell>
        <mxCell id="4k_-eSurIzz81q9YkGPV-1" value="Enter Code" style="html=1;verticalAlign=bottom;endArrow=block;curved=0;rounded=0;fontSize=14;" parent="1" source="FCo0-ONp6flalBKuaQ2e-3" edge="1">
          <mxGeometry width="80" relative="1" as="geometry">
            <mxPoint x="230" y="540" as="sourcePoint" />
            <mxPoint x="375" y="540" as="targetPoint" />
            <Array as="points">
              <mxPoint x="312" y="540" />
            </Array>
          </mxGeometry>
        </mxCell>
        <mxCell id="4k_-eSurIzz81q9YkGPV-2" value="sendCode()" style="html=1;align=left;spacingLeft=2;endArrow=block;rounded=0;edgeStyle=orthogonalEdgeStyle;curved=0;rounded=0;fontSize=14;" parent="1" source="FCo0-ONp6flalBKuaQ2e-21" target="FCo0-ONp6flalBKuaQ2e-21" edge="1">
          <mxGeometry relative="1" as="geometry">
            <mxPoint x="789" y="468" as="sourcePoint" />
            <Array as="points">
              <mxPoint x="576" y="444" />
              <mxPoint x="576" y="468" />
            </Array>
            <mxPoint x="789" y="492" as="targetPoint" />
          </mxGeometry>
        </mxCell>
        <mxCell id="4k_-eSurIzz81q9YkGPV-3" value="checkCode()" style="html=1;verticalAlign=bottom;endArrow=block;curved=0;rounded=0;fontSize=14;" parent="1" target="FCo0-ONp6flalBKuaQ2e-21" edge="1">
          <mxGeometry width="80" relative="1" as="geometry">
            <mxPoint x="377.5" y="550" as="sourcePoint" />
            <mxPoint x="522.5" y="550" as="targetPoint" />
            <Array as="points" />
          </mxGeometry>
        </mxCell>
        <mxCell id="Zz_cgDFKvd-fRCbT6bn_-1" value="checkCode()" style="html=1;align=left;spacingLeft=2;endArrow=block;rounded=0;edgeStyle=orthogonalEdgeStyle;curved=0;rounded=0;fontSize=14;" parent="1" source="FCo0-ONp6flalBKuaQ2e-21" target="FCo0-ONp6flalBKuaQ2e-21" edge="1">
          <mxGeometry relative="1" as="geometry">
            <mxPoint x="557" y="456" as="sourcePoint" />
            <Array as="points">
              <mxPoint x="576" y="564" />
              <mxPoint x="576" y="588" />
            </Array>
            <mxPoint x="557" y="480" as="targetPoint" />
          </mxGeometry>
        </mxCell>
        <mxCell id="Zz_cgDFKvd-fRCbT6bn_-2" value="success" style="html=1;verticalAlign=bottom;endArrow=open;dashed=1;endSize=8;curved=0;rounded=0;fontSize=14;" parent="1" source="FCo0-ONp6flalBKuaQ2e-21" target="FCo0-ONp6flalBKuaQ2e-7" edge="1">
          <mxGeometry relative="1" as="geometry">
            <mxPoint x="397" y="504" as="targetPoint" />
            <mxPoint x="547" y="504" as="sourcePoint" />
            <Array as="points">
              <mxPoint x="456" y="600" />
            </Array>
          </mxGeometry>
        </mxCell>
        <mxCell id="Zz_cgDFKvd-fRCbT6bn_-3" value="Show send code success" style="html=1;verticalAlign=bottom;endArrow=block;curved=0;rounded=0;fontSize=14;" parent="1" source="FCo0-ONp6flalBKuaQ2e-7" target="FCo0-ONp6flalBKuaQ2e-3" edge="1">
          <mxGeometry width="80" relative="1" as="geometry">
            <mxPoint x="387" y="522" as="sourcePoint" />
            <mxPoint x="242" y="522" as="targetPoint" />
            <Array as="points">
              <mxPoint x="300" y="612" />
            </Array>
          </mxGeometry>
        </mxCell>
        <mxCell id="Zz_cgDFKvd-fRCbT6bn_-4" value="Enter new password" style="html=1;verticalAlign=bottom;endArrow=block;curved=0;rounded=0;fontSize=14;" parent="1" source="FCo0-ONp6flalBKuaQ2e-3" target="FCo0-ONp6flalBKuaQ2e-7" edge="1">
          <mxGeometry width="80" relative="1" as="geometry">
            <mxPoint x="242" y="552" as="sourcePoint" />
            <mxPoint x="387" y="552" as="targetPoint" />
            <Array as="points">
              <mxPoint x="300" y="660" />
            </Array>
          </mxGeometry>
        </mxCell>
        <mxCell id="Zz_cgDFKvd-fRCbT6bn_-5" value="changePassword()" style="html=1;verticalAlign=bottom;endArrow=block;curved=0;rounded=0;fontSize=14;" parent="1" source="FCo0-ONp6flalBKuaQ2e-7" target="FCo0-ONp6flalBKuaQ2e-21" edge="1">
          <mxGeometry width="80" relative="1" as="geometry">
            <mxPoint x="389.5" y="562" as="sourcePoint" />
            <mxPoint x="547" y="562" as="targetPoint" />
            <Array as="points">
              <mxPoint x="444" y="684" />
            </Array>
          </mxGeometry>
        </mxCell>
        <mxCell id="bXRS9iDT4WdcSa2_dVt6-1" value="" style="endArrow=none;dashed=1;html=1;rounded=0;fontSize=14;" parent="1" source="bXRS9iDT4WdcSa2_dVt6-11" edge="1">
          <mxGeometry width="50" height="50" relative="1" as="geometry">
            <mxPoint x="698" y="876" as="sourcePoint" />
            <mxPoint x="698" y="218" as="targetPoint" />
          </mxGeometry>
        </mxCell>
        <mxCell id="bXRS9iDT4WdcSa2_dVt6-3" value="" style="shape=umlBoundary;whiteSpace=wrap;html=1;fontSize=14;" parent="1" vertex="1">
          <mxGeometry x="646" y="112" width="100" height="80" as="geometry" />
        </mxCell>
        <mxCell id="bXRS9iDT4WdcSa2_dVt6-4" value="&lt;span style=&quot;text-wrap-mode: wrap;&quot;&gt;:UserDatabase&lt;/span&gt;" style="text;html=1;align=center;verticalAlign=middle;resizable=0;points=[];autosize=1;strokeColor=none;fillColor=none;fontSize=14;" parent="1" vertex="1">
          <mxGeometry x="636" y="187" width="120" height="36" as="geometry" />
        </mxCell>
        <mxCell id="bXRS9iDT4WdcSa2_dVt6-5" value=":UserDatabase" style="shape=umlActor;verticalLabelPosition=bottom;verticalAlign=top;html=1;fontSize=14;" parent="1" vertex="1">
          <mxGeometry x="816" y="133" width="30" height="60" as="geometry" />
        </mxCell>
        <mxCell id="bXRS9iDT4WdcSa2_dVt6-6" value="" style="endArrow=none;dashed=1;html=1;rounded=0;fontSize=14;" parent="1" source="ij4DqqbmbFanaINQP8lk-4" edge="1">
          <mxGeometry width="50" height="50" relative="1" as="geometry">
            <mxPoint x="828" y="877" as="sourcePoint" />
            <mxPoint x="828" y="219" as="targetPoint" />
          </mxGeometry>
        </mxCell>
        <mxCell id="bXRS9iDT4WdcSa2_dVt6-13" value="" style="endArrow=none;dashed=1;html=1;rounded=0;fontSize=14;" parent="1" target="bXRS9iDT4WdcSa2_dVt6-11" edge="1">
          <mxGeometry width="50" height="50" relative="1" as="geometry">
            <mxPoint x="698" y="924" as="sourcePoint" />
            <mxPoint x="698" y="218" as="targetPoint" />
          </mxGeometry>
        </mxCell>
        <mxCell id="bXRS9iDT4WdcSa2_dVt6-11" value="" style="html=1;points=[[0,0,0,0,5],[0,1,0,0,-5],[1,0,0,0,5],[1,1,0,0,-5]];perimeter=orthogonalPerimeter;outlineConnect=0;targetShapes=umlLifeline;portConstraint=eastwest;newEdgeStyle={&quot;curved&quot;:0,&quot;rounded&quot;:0};fontSize=14;" parent="1" vertex="1">
          <mxGeometry x="691" y="696" width="10" height="80" as="geometry" />
        </mxCell>
        <mxCell id="bXRS9iDT4WdcSa2_dVt6-14" value="changePassword()" style="html=1;verticalAlign=bottom;endArrow=block;curved=0;rounded=0;fontSize=14;" parent="1" source="FCo0-ONp6flalBKuaQ2e-21" target="bXRS9iDT4WdcSa2_dVt6-11" edge="1">
          <mxGeometry width="80" relative="1" as="geometry">
            <mxPoint x="594" y="735.5" as="sourcePoint" />
            <mxPoint x="744" y="735.5" as="targetPoint" />
            <Array as="points">
              <mxPoint x="660" y="696" />
            </Array>
          </mxGeometry>
        </mxCell>
        <mxCell id="ij4DqqbmbFanaINQP8lk-5" value="" style="endArrow=none;dashed=1;html=1;rounded=0;fontSize=14;" parent="1" target="ij4DqqbmbFanaINQP8lk-4" edge="1">
          <mxGeometry width="50" height="50" relative="1" as="geometry">
            <mxPoint x="828" y="912" as="sourcePoint" />
            <mxPoint x="828" y="219" as="targetPoint" />
          </mxGeometry>
        </mxCell>
        <mxCell id="ij4DqqbmbFanaINQP8lk-4" value="" style="html=1;points=[[0,0,0,0,5],[0,1,0,0,-5],[1,0,0,0,5],[1,1,0,0,-5]];perimeter=orthogonalPerimeter;outlineConnect=0;targetShapes=umlLifeline;portConstraint=eastwest;newEdgeStyle={&quot;curved&quot;:0,&quot;rounded&quot;:0};fontSize=14;" parent="1" vertex="1">
          <mxGeometry x="826" y="697" width="10" height="80" as="geometry" />
        </mxCell>
        <mxCell id="ij4DqqbmbFanaINQP8lk-6" value="changePassword()" style="html=1;verticalAlign=bottom;endArrow=block;curved=0;rounded=0;fontSize=14;" parent="1" source="bXRS9iDT4WdcSa2_dVt6-11" target="ij4DqqbmbFanaINQP8lk-4" edge="1">
          <mxGeometry width="80" relative="1" as="geometry">
            <mxPoint x="678" y="747.5" as="sourcePoint" />
            <mxPoint x="898" y="747.5" as="targetPoint" />
            <Array as="points">
              <mxPoint x="802" y="720" />
            </Array>
          </mxGeometry>
        </mxCell>
        <mxCell id="ij4DqqbmbFanaINQP8lk-7" value="success" style="html=1;verticalAlign=bottom;endArrow=open;dashed=1;endSize=8;curved=0;rounded=0;fontSize=14;" parent="1" source="ij4DqqbmbFanaINQP8lk-4" target="bXRS9iDT4WdcSa2_dVt6-11" edge="1">
          <mxGeometry relative="1" as="geometry">
            <mxPoint x="718" y="756" as="targetPoint" />
            <mxPoint x="868" y="756" as="sourcePoint" />
            <Array as="points">
              <mxPoint x="789" y="756" />
            </Array>
          </mxGeometry>
        </mxCell>
        <mxCell id="ij4DqqbmbFanaINQP8lk-8" value="success" style="html=1;verticalAlign=bottom;endArrow=open;dashed=1;endSize=8;curved=0;rounded=0;fontSize=14;" parent="1" source="bXRS9iDT4WdcSa2_dVt6-11" target="FCo0-ONp6flalBKuaQ2e-21" edge="1">
          <mxGeometry relative="1" as="geometry">
            <mxPoint x="560" y="720" as="targetPoint" />
            <mxPoint x="710" y="720" as="sourcePoint" />
            <Array as="points">
              <mxPoint x="612" y="768" />
            </Array>
          </mxGeometry>
        </mxCell>
        <mxCell id="ij4DqqbmbFanaINQP8lk-9" value="success" style="html=1;verticalAlign=bottom;endArrow=open;dashed=1;endSize=8;curved=0;rounded=0;fontSize=14;" parent="1" edge="1">
          <mxGeometry relative="1" as="geometry">
            <mxPoint x="385" y="792" as="targetPoint" />
            <mxPoint x="535" y="792" as="sourcePoint" />
            <Array as="points">
              <mxPoint x="427" y="792" />
            </Array>
          </mxGeometry>
        </mxCell>
        <mxCell id="ij4DqqbmbFanaINQP8lk-11" value="Show success" style="html=1;verticalAlign=bottom;endArrow=block;curved=0;rounded=0;fontSize=14;" parent="1" target="FCo0-ONp6flalBKuaQ2e-3" edge="1">
          <mxGeometry width="80" relative="1" as="geometry">
            <mxPoint x="375" y="803" as="sourcePoint" />
            <mxPoint x="230" y="803" as="targetPoint" />
            <Array as="points">
              <mxPoint x="312" y="803" />
            </Array>
          </mxGeometry>
        </mxCell>
        <mxCell id="sclzImHmWj6f53-Tx_Nl-1" value="Ref" style="shape=umlFrame;whiteSpace=wrap;html=1;pointerEvents=0;fontSize=14;" parent="1" vertex="1">
          <mxGeometry x="132" y="864" width="744" height="40" as="geometry" />
        </mxCell>
        <mxCell id="sclzImHmWj6f53-Tx_Nl-2" value="Đăng nhâp" style="text;html=1;align=center;verticalAlign=middle;resizable=0;points=[];autosize=1;strokeColor=none;fillColor=none;fontSize=14;" parent="1" vertex="1">
          <mxGeometry x="428" y="871" width="96" height="36" as="geometry" />
        </mxCell>
      </root>
    </mxGraphModel>
  </diagram>
  <diagram id="OR69QNzky5zqEhM8vZwE" name="Thay đổi thông tin">
    <mxGraphModel dx="1368" dy="838" grid="1" gridSize="10" guides="1" tooltips="1" connect="1" arrows="1" fold="1" page="1" pageScale="1" pageWidth="850" pageHeight="1100" math="0" shadow="0">
      <root>
        <mxCell id="0" />
        <mxCell id="1" parent="0" />
        <mxCell id="Ejizr8vmLg1ODikuq3PU-1" value="User" style="shape=umlActor;verticalLabelPosition=bottom;verticalAlign=top;html=1;fontSize=14;" parent="1" vertex="1">
          <mxGeometry x="210" y="132" width="30" height="60" as="geometry" />
        </mxCell>
        <mxCell id="Ejizr8vmLg1ODikuq3PU-2" value="" style="endArrow=none;dashed=1;html=1;rounded=0;fontSize=14;" parent="1" edge="1">
          <mxGeometry width="50" height="50" relative="1" as="geometry">
            <mxPoint x="225" y="740" as="sourcePoint" />
            <mxPoint x="225" y="220" as="targetPoint" />
          </mxGeometry>
        </mxCell>
        <mxCell id="Ejizr8vmLg1ODikuq3PU-3" value="" style="html=1;points=[[0,0,0,0,5],[0,1,0,0,-5],[1,0,0,0,5],[1,1,0,0,-5]];perimeter=orthogonalPerimeter;outlineConnect=0;targetShapes=umlLifeline;portConstraint=eastwest;newEdgeStyle={&quot;curved&quot;:0,&quot;rounded&quot;:0};fontSize=14;" parent="1" vertex="1">
          <mxGeometry x="220" y="230" width="10" height="390" as="geometry" />
        </mxCell>
        <mxCell id="Ejizr8vmLg1ODikuq3PU-4" value="" style="shape=umlBoundary;whiteSpace=wrap;html=1;fontSize=14;" parent="1" vertex="1">
          <mxGeometry x="335" y="122" width="85" height="70" as="geometry" />
        </mxCell>
        <mxCell id="Ejizr8vmLg1ODikuq3PU-5" value="" style="endArrow=none;dashed=1;html=1;rounded=0;fontSize=14;" parent="1" edge="1">
          <mxGeometry width="50" height="50" relative="1" as="geometry">
            <mxPoint x="380" y="740" as="sourcePoint" />
            <mxPoint x="380" y="220" as="targetPoint" />
          </mxGeometry>
        </mxCell>
        <mxCell id="Ejizr8vmLg1ODikuq3PU-7" value="" style="html=1;points=[[0,0,0,0,5],[0,1,0,0,-5],[1,0,0,0,5],[1,1,0,0,-5]];perimeter=orthogonalPerimeter;outlineConnect=0;targetShapes=umlLifeline;portConstraint=eastwest;newEdgeStyle={&quot;curved&quot;:0,&quot;rounded&quot;:0};fontSize=14;" parent="1" vertex="1">
          <mxGeometry x="375" y="230" width="10" height="390" as="geometry" />
        </mxCell>
        <mxCell id="Ejizr8vmLg1ODikuq3PU-8" value="Enter new infomation" style="html=1;verticalAlign=bottom;endArrow=block;curved=0;rounded=0;fontSize=14;" parent="1" source="Ejizr8vmLg1ODikuq3PU-3" target="Ejizr8vmLg1ODikuq3PU-7" edge="1">
          <mxGeometry width="80" relative="1" as="geometry">
            <mxPoint x="370" y="380" as="sourcePoint" />
            <mxPoint x="450" y="380" as="targetPoint" />
            <Array as="points">
              <mxPoint x="300" y="260" />
            </Array>
          </mxGeometry>
        </mxCell>
        <mxCell id="Ejizr8vmLg1ODikuq3PU-9" value="Show alert" style="html=1;verticalAlign=bottom;endArrow=block;curved=0;rounded=0;fontSize=14;" parent="1" source="Ejizr8vmLg1ODikuq3PU-7" target="Ejizr8vmLg1ODikuq3PU-3" edge="1">
          <mxGeometry width="80" relative="1" as="geometry">
            <mxPoint x="370" y="290" as="sourcePoint" />
            <mxPoint x="480" y="240" as="targetPoint" />
            <Array as="points">
              <mxPoint x="300" y="330" />
            </Array>
          </mxGeometry>
        </mxCell>
        <mxCell id="Ejizr8vmLg1ODikuq3PU-10" value="checkValid()" style="html=1;align=left;spacingLeft=2;endArrow=block;rounded=0;edgeStyle=orthogonalEdgeStyle;curved=0;rounded=0;fontSize=14;" parent="1" source="Ejizr8vmLg1ODikuq3PU-7" target="Ejizr8vmLg1ODikuq3PU-7" edge="1">
          <mxGeometry relative="1" as="geometry">
            <mxPoint x="470" y="230" as="sourcePoint" />
            <Array as="points">
              <mxPoint x="405" y="270" />
              <mxPoint x="405" y="290" />
            </Array>
            <mxPoint x="475" y="260.02857142857135" as="targetPoint" />
          </mxGeometry>
        </mxCell>
        <mxCell id="Ejizr8vmLg1ODikuq3PU-11" value="checkValid()" style="shape=umlFrame;whiteSpace=wrap;html=1;pointerEvents=0;width=90;height=30;fontSize=14;" parent="1" vertex="1">
          <mxGeometry x="90" y="300" width="940" height="350" as="geometry" />
        </mxCell>
        <mxCell id="Ejizr8vmLg1ODikuq3PU-12" value="" style="endArrow=none;dashed=1;html=1;rounded=0;fontSize=14;entryX=1.002;entryY=0.171;entryDx=0;entryDy=0;entryPerimeter=0;" parent="1" target="Ejizr8vmLg1ODikuq3PU-11" edge="1">
          <mxGeometry width="50" height="50" relative="1" as="geometry">
            <mxPoint x="90" y="360" as="sourcePoint" />
            <mxPoint x="912" y="360" as="targetPoint" />
          </mxGeometry>
        </mxCell>
        <mxCell id="Ejizr8vmLg1ODikuq3PU-13" value="[Invalid]" style="text;html=1;align=center;verticalAlign=middle;resizable=0;points=[];autosize=1;strokeColor=none;fillColor=none;fontSize=14;" parent="1" vertex="1">
          <mxGeometry x="85" y="328" width="70" height="30" as="geometry" />
        </mxCell>
        <mxCell id="Ejizr8vmLg1ODikuq3PU-14" value="[Valid]" style="text;html=1;align=center;verticalAlign=middle;resizable=0;points=[];autosize=1;strokeColor=none;fillColor=none;fontSize=14;" parent="1" vertex="1">
          <mxGeometry x="90" y="358" width="60" height="30" as="geometry" />
        </mxCell>
        <mxCell id="Ejizr8vmLg1ODikuq3PU-16" value="" style="ellipse;shape=umlControl;whiteSpace=wrap;html=1;fontSize=14;" parent="1" vertex="1">
          <mxGeometry x="505" y="110" width="70" height="80" as="geometry" />
        </mxCell>
        <mxCell id="Ejizr8vmLg1ODikuq3PU-17" value="&lt;span style=&quot;text-wrap-mode: wrap;&quot;&gt;:UserController&lt;/span&gt;" style="text;html=1;align=center;verticalAlign=middle;resizable=0;points=[];autosize=1;strokeColor=none;fillColor=none;fontSize=14;" parent="1" vertex="1">
          <mxGeometry x="480" y="190" width="120" height="30" as="geometry" />
        </mxCell>
        <mxCell id="Ejizr8vmLg1ODikuq3PU-18" value="&lt;span style=&quot;text-wrap-mode: wrap;&quot;&gt;:ChangeInfoForm&lt;/span&gt;" style="text;html=1;align=center;verticalAlign=middle;resizable=0;points=[];autosize=1;strokeColor=none;fillColor=none;fontSize=14;" parent="1" vertex="1">
          <mxGeometry x="315" y="192" width="130" height="30" as="geometry" />
        </mxCell>
        <mxCell id="Ejizr8vmLg1ODikuq3PU-19" value="" style="endArrow=none;dashed=1;html=1;rounded=0;fontSize=14;" parent="1" target="Ejizr8vmLg1ODikuq3PU-17" edge="1">
          <mxGeometry width="50" height="50" relative="1" as="geometry">
            <mxPoint x="540" y="730" as="sourcePoint" />
            <mxPoint x="445" y="308" as="targetPoint" />
          </mxGeometry>
        </mxCell>
        <mxCell id="Ejizr8vmLg1ODikuq3PU-20" value="changeInfo()" style="html=1;verticalAlign=bottom;endArrow=block;curved=0;rounded=0;fontSize=14;" parent="1" target="Ejizr8vmLg1ODikuq3PU-21" edge="1">
          <mxGeometry width="80" relative="1" as="geometry">
            <mxPoint x="385" y="410" as="sourcePoint" />
            <mxPoint x="490" y="410" as="targetPoint" />
            <Array as="points">
              <mxPoint x="470" y="410" />
            </Array>
          </mxGeometry>
        </mxCell>
        <mxCell id="Ejizr8vmLg1ODikuq3PU-21" value="" style="html=1;points=[[0,0,0,0,5],[0,1,0,0,-5],[1,0,0,0,5],[1,1,0,0,-5]];perimeter=orthogonalPerimeter;outlineConnect=0;targetShapes=umlLifeline;portConstraint=eastwest;newEdgeStyle={&quot;curved&quot;:0,&quot;rounded&quot;:0};fontSize=14;" parent="1" vertex="1">
          <mxGeometry x="535" y="388" width="10" height="182" as="geometry" />
        </mxCell>
        <mxCell id="Ejizr8vmLg1ODikuq3PU-28" value="success" style="html=1;verticalAlign=bottom;endArrow=open;dashed=1;endSize=8;curved=0;rounded=0;fontSize=14;" parent="1" edge="1">
          <mxGeometry relative="1" as="geometry">
            <mxPoint x="383" y="550" as="targetPoint" />
            <mxPoint x="533" y="550" as="sourcePoint" />
            <Array as="points">
              <mxPoint x="454" y="550" />
            </Array>
          </mxGeometry>
        </mxCell>
        <mxCell id="Ejizr8vmLg1ODikuq3PU-29" value="Show success" style="html=1;verticalAlign=bottom;endArrow=block;curved=0;rounded=0;fontSize=14;" parent="1" edge="1">
          <mxGeometry width="80" relative="1" as="geometry">
            <mxPoint x="373" y="562" as="sourcePoint" />
            <mxPoint x="228" y="562" as="targetPoint" />
            <Array as="points">
              <mxPoint x="298" y="562" />
            </Array>
          </mxGeometry>
        </mxCell>
        <mxCell id="Ejizr8vmLg1ODikuq3PU-32" value="" style="endArrow=none;dashed=1;html=1;rounded=0;fontSize=14;" parent="1" source="Ejizr8vmLg1ODikuq3PU-38" edge="1">
          <mxGeometry width="50" height="50" relative="1" as="geometry">
            <mxPoint x="826" y="874" as="sourcePoint" />
            <mxPoint x="826" y="216" as="targetPoint" />
          </mxGeometry>
        </mxCell>
        <mxCell id="Ejizr8vmLg1ODikuq3PU-33" value="" style="shape=umlBoundary;whiteSpace=wrap;html=1;fontSize=14;" parent="1" vertex="1">
          <mxGeometry x="774" y="110" width="100" height="80" as="geometry" />
        </mxCell>
        <mxCell id="Ejizr8vmLg1ODikuq3PU-34" value="&lt;span style=&quot;text-wrap-mode: wrap;&quot;&gt;:UserDatabase&lt;/span&gt;" style="text;html=1;align=center;verticalAlign=middle;resizable=0;points=[];autosize=1;strokeColor=none;fillColor=none;fontSize=14;" parent="1" vertex="1">
          <mxGeometry x="764" y="188" width="120" height="30" as="geometry" />
        </mxCell>
        <mxCell id="Ejizr8vmLg1ODikuq3PU-35" value=":UserDatabase" style="shape=umlActor;verticalLabelPosition=bottom;verticalAlign=top;html=1;fontSize=14;" parent="1" vertex="1">
          <mxGeometry x="944" y="131" width="30" height="60" as="geometry" />
        </mxCell>
        <mxCell id="Ejizr8vmLg1ODikuq3PU-36" value="" style="endArrow=none;dashed=1;html=1;rounded=0;fontSize=14;" parent="1" source="Ejizr8vmLg1ODikuq3PU-41" edge="1">
          <mxGeometry width="50" height="50" relative="1" as="geometry">
            <mxPoint x="956" y="875" as="sourcePoint" />
            <mxPoint x="956" y="217" as="targetPoint" />
          </mxGeometry>
        </mxCell>
        <mxCell id="Ejizr8vmLg1ODikuq3PU-37" value="" style="endArrow=none;dashed=1;html=1;rounded=0;fontSize=14;" parent="1" target="Ejizr8vmLg1ODikuq3PU-38" edge="1">
          <mxGeometry width="50" height="50" relative="1" as="geometry">
            <mxPoint x="826" y="730" as="sourcePoint" />
            <mxPoint x="826" y="196" as="targetPoint" />
          </mxGeometry>
        </mxCell>
        <mxCell id="Ejizr8vmLg1ODikuq3PU-38" value="" style="html=1;points=[[0,0,0,0,5],[0,1,0,0,-5],[1,0,0,0,5],[1,1,0,0,-5]];perimeter=orthogonalPerimeter;outlineConnect=0;targetShapes=umlLifeline;portConstraint=eastwest;newEdgeStyle={&quot;curved&quot;:0,&quot;rounded&quot;:0};fontSize=14;" parent="1" vertex="1">
          <mxGeometry x="819" y="430" width="10" height="80" as="geometry" />
        </mxCell>
        <mxCell id="Ejizr8vmLg1ODikuq3PU-40" value="" style="endArrow=none;dashed=1;html=1;rounded=0;fontSize=14;" parent="1" target="Ejizr8vmLg1ODikuq3PU-41" edge="1">
          <mxGeometry width="50" height="50" relative="1" as="geometry">
            <mxPoint x="956" y="730" as="sourcePoint" />
            <mxPoint x="956" y="197" as="targetPoint" />
          </mxGeometry>
        </mxCell>
        <mxCell id="Ejizr8vmLg1ODikuq3PU-41" value="" style="html=1;points=[[0,0,0,0,5],[0,1,0,0,-5],[1,0,0,0,5],[1,1,0,0,-5]];perimeter=orthogonalPerimeter;outlineConnect=0;targetShapes=umlLifeline;portConstraint=eastwest;newEdgeStyle={&quot;curved&quot;:0,&quot;rounded&quot;:0};fontSize=14;" parent="1" vertex="1">
          <mxGeometry x="954" y="431" width="10" height="80" as="geometry" />
        </mxCell>
        <mxCell id="Ejizr8vmLg1ODikuq3PU-42" value="update()" style="html=1;verticalAlign=bottom;endArrow=block;curved=0;rounded=0;fontSize=14;" parent="1" source="Ejizr8vmLg1ODikuq3PU-38" target="Ejizr8vmLg1ODikuq3PU-41" edge="1">
          <mxGeometry width="80" relative="1" as="geometry">
            <mxPoint x="806" y="481.5" as="sourcePoint" />
            <mxPoint x="1026" y="481.5" as="targetPoint" />
            <Array as="points">
              <mxPoint x="930" y="454" />
            </Array>
          </mxGeometry>
        </mxCell>
        <mxCell id="Ejizr8vmLg1ODikuq3PU-43" value="success" style="html=1;verticalAlign=bottom;endArrow=open;dashed=1;endSize=8;curved=0;rounded=0;fontSize=14;" parent="1" source="Ejizr8vmLg1ODikuq3PU-41" target="Ejizr8vmLg1ODikuq3PU-38" edge="1">
          <mxGeometry relative="1" as="geometry">
            <mxPoint x="846" y="490" as="targetPoint" />
            <mxPoint x="996" y="490" as="sourcePoint" />
            <Array as="points">
              <mxPoint x="917" y="490" />
            </Array>
          </mxGeometry>
        </mxCell>
        <mxCell id="Ejizr8vmLg1ODikuq3PU-47" value="Ref" style="shape=umlFrame;whiteSpace=wrap;html=1;pointerEvents=0;fontSize=14;" parent="1" vertex="1">
          <mxGeometry x="130" y="650" width="880" height="40" as="geometry" />
        </mxCell>
        <mxCell id="Ejizr8vmLg1ODikuq3PU-48" value="Đăng nhâp" style="text;html=1;align=center;verticalAlign=middle;resizable=0;points=[];autosize=1;strokeColor=none;fillColor=none;fontSize=14;" parent="1" vertex="1">
          <mxGeometry x="557" y="655" width="90" height="30" as="geometry" />
        </mxCell>
        <mxCell id="K39UdDiXEbPy9SaUniot-1" value="" style="endArrow=none;dashed=1;html=1;rounded=0;fontSize=14;" parent="1" source="K39UdDiXEbPy9SaUniot-4" target="K39UdDiXEbPy9SaUniot-7" edge="1">
          <mxGeometry width="50" height="50" relative="1" as="geometry">
            <mxPoint x="682" y="884" as="sourcePoint" />
            <mxPoint x="682" y="226" as="targetPoint" />
          </mxGeometry>
        </mxCell>
        <mxCell id="K39UdDiXEbPy9SaUniot-3" value="" style="endArrow=none;dashed=1;html=1;rounded=0;fontSize=14;" parent="1" target="K39UdDiXEbPy9SaUniot-4" edge="1">
          <mxGeometry width="50" height="50" relative="1" as="geometry">
            <mxPoint x="682" y="720" as="sourcePoint" />
            <mxPoint x="682" y="206" as="targetPoint" />
          </mxGeometry>
        </mxCell>
        <mxCell id="K39UdDiXEbPy9SaUniot-4" value="" style="html=1;points=[[0,0,0,0,5],[0,1,0,0,-5],[1,0,0,0,5],[1,1,0,0,-5]];perimeter=orthogonalPerimeter;outlineConnect=0;targetShapes=umlLifeline;portConstraint=eastwest;newEdgeStyle={&quot;curved&quot;:0,&quot;rounded&quot;:0};fontSize=14;" parent="1" vertex="1">
          <mxGeometry x="675" y="410" width="10" height="110" as="geometry" />
        </mxCell>
        <mxCell id="K39UdDiXEbPy9SaUniot-6" value="" style="ellipse;shape=umlEntity;whiteSpace=wrap;html=1;fontSize=14;" parent="1" vertex="1">
          <mxGeometry x="640" y="117" width="80" height="80" as="geometry" />
        </mxCell>
        <mxCell id="K39UdDiXEbPy9SaUniot-7" value="&lt;span style=&quot;text-wrap-mode: wrap;&quot;&gt;:User&lt;/span&gt;" style="text;html=1;align=center;verticalAlign=middle;resizable=0;points=[];autosize=1;strokeColor=none;fillColor=none;fontSize=14;" parent="1" vertex="1">
          <mxGeometry x="650" y="195" width="60" height="30" as="geometry" />
        </mxCell>
        <mxCell id="K39UdDiXEbPy9SaUniot-8" value="changeInfo()" style="html=1;verticalAlign=bottom;endArrow=block;curved=0;rounded=0;fontSize=14;" parent="1" edge="1">
          <mxGeometry width="80" relative="1" as="geometry">
            <mxPoint x="545" y="430" as="sourcePoint" />
            <mxPoint x="675" y="430" as="targetPoint" />
            <Array as="points">
              <mxPoint x="610" y="430" />
            </Array>
          </mxGeometry>
        </mxCell>
        <mxCell id="K39UdDiXEbPy9SaUniot-9" value="update()" style="html=1;verticalAlign=bottom;endArrow=block;curved=0;rounded=0;fontSize=14;" parent="1" edge="1">
          <mxGeometry width="80" relative="1" as="geometry">
            <mxPoint x="685" y="440" as="sourcePoint" />
            <mxPoint x="819" y="440" as="targetPoint" />
            <Array as="points">
              <mxPoint x="754" y="440" />
            </Array>
          </mxGeometry>
        </mxCell>
        <mxCell id="K39UdDiXEbPy9SaUniot-10" value="success" style="html=1;verticalAlign=bottom;endArrow=open;dashed=1;endSize=8;curved=0;rounded=0;fontSize=14;" parent="1" source="Ejizr8vmLg1ODikuq3PU-38" target="K39UdDiXEbPy9SaUniot-4" edge="1">
          <mxGeometry relative="1" as="geometry">
            <mxPoint x="694" y="496.5" as="targetPoint" />
            <mxPoint x="819" y="496.5" as="sourcePoint" />
            <Array as="points">
              <mxPoint x="782" y="500" />
            </Array>
          </mxGeometry>
        </mxCell>
        <mxCell id="K39UdDiXEbPy9SaUniot-11" value="success" style="html=1;verticalAlign=bottom;endArrow=open;dashed=1;endSize=8;curved=0;rounded=0;fontSize=14;" parent="1" edge="1">
          <mxGeometry relative="1" as="geometry">
            <mxPoint x="545" y="520" as="targetPoint" />
            <mxPoint x="679" y="520" as="sourcePoint" />
            <Array as="points">
              <mxPoint x="642" y="520" />
            </Array>
          </mxGeometry>
        </mxCell>
      </root>
    </mxGraphModel>
  </diagram>
  <diagram id="9Obmks5i6tsh2KWE05He" name="Xóa tài khoản">
    <mxGraphModel dx="1368" dy="838" grid="1" gridSize="10" guides="1" tooltips="1" connect="1" arrows="1" fold="1" page="1" pageScale="1" pageWidth="850" pageHeight="1100" math="0" shadow="0">
      <root>
        <mxCell id="0" />
        <mxCell id="1" parent="0" />
        <mxCell id="3K25FO0Td4FVb8Lzs0hA-1" value="User" style="shape=umlActor;verticalLabelPosition=bottom;verticalAlign=top;html=1;fontSize=14;" parent="1" vertex="1">
          <mxGeometry x="190" y="131" width="30" height="60" as="geometry" />
        </mxCell>
        <mxCell id="3K25FO0Td4FVb8Lzs0hA-2" value="" style="endArrow=none;dashed=1;html=1;rounded=0;fontSize=14;" parent="1" edge="1">
          <mxGeometry width="50" height="50" relative="1" as="geometry">
            <mxPoint x="205" y="630" as="sourcePoint" />
            <mxPoint x="205" y="219" as="targetPoint" />
          </mxGeometry>
        </mxCell>
        <mxCell id="3K25FO0Td4FVb8Lzs0hA-3" value="" style="html=1;points=[[0,0,0,0,5],[0,1,0,0,-5],[1,0,0,0,5],[1,1,0,0,-5]];perimeter=orthogonalPerimeter;outlineConnect=0;targetShapes=umlLifeline;portConstraint=eastwest;newEdgeStyle={&quot;curved&quot;:0,&quot;rounded&quot;:0};fontSize=14;" parent="1" vertex="1">
          <mxGeometry x="200" y="229" width="10" height="261" as="geometry" />
        </mxCell>
        <mxCell id="3K25FO0Td4FVb8Lzs0hA-4" value="" style="shape=umlBoundary;whiteSpace=wrap;html=1;fontSize=14;" parent="1" vertex="1">
          <mxGeometry x="335" y="122" width="85" height="70" as="geometry" />
        </mxCell>
        <mxCell id="3K25FO0Td4FVb8Lzs0hA-5" value="" style="endArrow=none;dashed=1;html=1;rounded=0;fontSize=14;" parent="1" edge="1">
          <mxGeometry width="50" height="50" relative="1" as="geometry">
            <mxPoint x="380" y="630" as="sourcePoint" />
            <mxPoint x="380" y="220" as="targetPoint" />
          </mxGeometry>
        </mxCell>
        <mxCell id="3K25FO0Td4FVb8Lzs0hA-6" value="" style="html=1;points=[[0,0,0,0,5],[0,1,0,0,-5],[1,0,0,0,5],[1,1,0,0,-5]];perimeter=orthogonalPerimeter;outlineConnect=0;targetShapes=umlLifeline;portConstraint=eastwest;newEdgeStyle={&quot;curved&quot;:0,&quot;rounded&quot;:0};fontSize=14;" parent="1" vertex="1">
          <mxGeometry x="375" y="230" width="10" height="260" as="geometry" />
        </mxCell>
        <mxCell id="3K25FO0Td4FVb8Lzs0hA-7" value="Choose detele account" style="html=1;verticalAlign=bottom;endArrow=block;curved=0;rounded=0;fontSize=14;" parent="1" source="3K25FO0Td4FVb8Lzs0hA-3" target="3K25FO0Td4FVb8Lzs0hA-6" edge="1">
          <mxGeometry width="80" relative="1" as="geometry">
            <mxPoint x="370" y="380" as="sourcePoint" />
            <mxPoint x="450" y="380" as="targetPoint" />
            <Array as="points">
              <mxPoint x="300" y="260" />
            </Array>
          </mxGeometry>
        </mxCell>
        <mxCell id="3K25FO0Td4FVb8Lzs0hA-14" value="" style="ellipse;shape=umlControl;whiteSpace=wrap;html=1;fontSize=14;" parent="1" vertex="1">
          <mxGeometry x="505" y="110" width="70" height="80" as="geometry" />
        </mxCell>
        <mxCell id="3K25FO0Td4FVb8Lzs0hA-15" value="&lt;span style=&quot;text-wrap-mode: wrap;&quot;&gt;:UserController&lt;/span&gt;" style="text;html=1;align=center;verticalAlign=middle;resizable=0;points=[];autosize=1;strokeColor=none;fillColor=none;fontSize=14;" parent="1" vertex="1">
          <mxGeometry x="480" y="190" width="120" height="30" as="geometry" />
        </mxCell>
        <mxCell id="3K25FO0Td4FVb8Lzs0hA-16" value="&lt;span style=&quot;text-wrap-mode: wrap;&quot;&gt;:DeleteAccountForm&lt;/span&gt;" style="text;html=1;align=center;verticalAlign=middle;resizable=0;points=[];autosize=1;strokeColor=none;fillColor=none;fontSize=14;" parent="1" vertex="1">
          <mxGeometry x="305" y="192" width="150" height="30" as="geometry" />
        </mxCell>
        <mxCell id="3K25FO0Td4FVb8Lzs0hA-17" value="" style="endArrow=none;dashed=1;html=1;rounded=0;fontSize=14;" parent="1" target="3K25FO0Td4FVb8Lzs0hA-15" edge="1">
          <mxGeometry width="50" height="50" relative="1" as="geometry">
            <mxPoint x="540" y="630" as="sourcePoint" />
            <mxPoint x="445" y="308" as="targetPoint" />
          </mxGeometry>
        </mxCell>
        <mxCell id="3K25FO0Td4FVb8Lzs0hA-18" value="deleteAccount()" style="html=1;verticalAlign=bottom;endArrow=block;curved=0;rounded=0;fontSize=14;" parent="1" target="3K25FO0Td4FVb8Lzs0hA-19" edge="1">
          <mxGeometry width="80" relative="1" as="geometry">
            <mxPoint x="385" y="312" as="sourcePoint" />
            <mxPoint x="490" y="312" as="targetPoint" />
            <Array as="points">
              <mxPoint x="470" y="312" />
            </Array>
          </mxGeometry>
        </mxCell>
        <mxCell id="3K25FO0Td4FVb8Lzs0hA-19" value="" style="html=1;points=[[0,0,0,0,5],[0,1,0,0,-5],[1,0,0,0,5],[1,1,0,0,-5]];perimeter=orthogonalPerimeter;outlineConnect=0;targetShapes=umlLifeline;portConstraint=eastwest;newEdgeStyle={&quot;curved&quot;:0,&quot;rounded&quot;:0};fontSize=14;" parent="1" vertex="1">
          <mxGeometry x="535" y="290" width="10" height="182" as="geometry" />
        </mxCell>
        <mxCell id="3K25FO0Td4FVb8Lzs0hA-22" value="success" style="html=1;verticalAlign=bottom;endArrow=open;dashed=1;endSize=8;curved=0;rounded=0;fontSize=14;" parent="1" edge="1">
          <mxGeometry relative="1" as="geometry">
            <mxPoint x="383" y="452" as="targetPoint" />
            <mxPoint x="533" y="452" as="sourcePoint" />
            <Array as="points">
              <mxPoint x="454" y="452" />
            </Array>
          </mxGeometry>
        </mxCell>
        <mxCell id="3K25FO0Td4FVb8Lzs0hA-23" value="Show success" style="html=1;verticalAlign=bottom;endArrow=block;curved=0;rounded=0;fontSize=14;" parent="1" edge="1">
          <mxGeometry width="80" relative="1" as="geometry">
            <mxPoint x="373" y="464" as="sourcePoint" />
            <mxPoint x="210" y="464" as="targetPoint" />
            <Array as="points">
              <mxPoint x="298" y="464" />
            </Array>
          </mxGeometry>
        </mxCell>
        <mxCell id="3K25FO0Td4FVb8Lzs0hA-24" value="" style="endArrow=none;dashed=1;html=1;rounded=0;fontSize=14;" parent="1" source="3K25FO0Td4FVb8Lzs0hA-30" edge="1">
          <mxGeometry width="50" height="50" relative="1" as="geometry">
            <mxPoint x="686" y="884" as="sourcePoint" />
            <mxPoint x="686" y="226" as="targetPoint" />
          </mxGeometry>
        </mxCell>
        <mxCell id="3K25FO0Td4FVb8Lzs0hA-25" value="" style="shape=umlBoundary;whiteSpace=wrap;html=1;fontSize=14;" parent="1" vertex="1">
          <mxGeometry x="634" y="120" width="100" height="80" as="geometry" />
        </mxCell>
        <mxCell id="3K25FO0Td4FVb8Lzs0hA-26" value="&lt;span style=&quot;text-wrap-mode: wrap;&quot;&gt;:UserDatabase&lt;/span&gt;" style="text;html=1;align=center;verticalAlign=middle;resizable=0;points=[];autosize=1;strokeColor=none;fillColor=none;fontSize=14;" parent="1" vertex="1">
          <mxGeometry x="624" y="198" width="120" height="30" as="geometry" />
        </mxCell>
        <mxCell id="3K25FO0Td4FVb8Lzs0hA-27" value=":UserDatabase" style="shape=umlActor;verticalLabelPosition=bottom;verticalAlign=top;html=1;fontSize=14;" parent="1" vertex="1">
          <mxGeometry x="804" y="141" width="30" height="60" as="geometry" />
        </mxCell>
        <mxCell id="3K25FO0Td4FVb8Lzs0hA-28" value="" style="endArrow=none;dashed=1;html=1;rounded=0;fontSize=14;" parent="1" source="3K25FO0Td4FVb8Lzs0hA-32" edge="1">
          <mxGeometry width="50" height="50" relative="1" as="geometry">
            <mxPoint x="816" y="885" as="sourcePoint" />
            <mxPoint x="816" y="227" as="targetPoint" />
          </mxGeometry>
        </mxCell>
        <mxCell id="3K25FO0Td4FVb8Lzs0hA-29" value="" style="endArrow=none;dashed=1;html=1;rounded=0;fontSize=14;" parent="1" target="3K25FO0Td4FVb8Lzs0hA-30" edge="1">
          <mxGeometry width="50" height="50" relative="1" as="geometry">
            <mxPoint x="686" y="630" as="sourcePoint" />
            <mxPoint x="686" y="108" as="targetPoint" />
          </mxGeometry>
        </mxCell>
        <mxCell id="3K25FO0Td4FVb8Lzs0hA-30" value="" style="html=1;points=[[0,0,0,0,5],[0,1,0,0,-5],[1,0,0,0,5],[1,1,0,0,-5]];perimeter=orthogonalPerimeter;outlineConnect=0;targetShapes=umlLifeline;portConstraint=eastwest;newEdgeStyle={&quot;curved&quot;:0,&quot;rounded&quot;:0};fontSize=14;" parent="1" vertex="1">
          <mxGeometry x="679" y="342" width="10" height="80" as="geometry" />
        </mxCell>
        <mxCell id="3K25FO0Td4FVb8Lzs0hA-31" value="" style="endArrow=none;dashed=1;html=1;rounded=0;fontSize=14;" parent="1" target="3K25FO0Td4FVb8Lzs0hA-32" edge="1">
          <mxGeometry width="50" height="50" relative="1" as="geometry">
            <mxPoint x="816" y="630" as="sourcePoint" />
            <mxPoint x="816" y="109" as="targetPoint" />
          </mxGeometry>
        </mxCell>
        <mxCell id="3K25FO0Td4FVb8Lzs0hA-32" value="" style="html=1;points=[[0,0,0,0,5],[0,1,0,0,-5],[1,0,0,0,5],[1,1,0,0,-5]];perimeter=orthogonalPerimeter;outlineConnect=0;targetShapes=umlLifeline;portConstraint=eastwest;newEdgeStyle={&quot;curved&quot;:0,&quot;rounded&quot;:0};fontSize=14;" parent="1" vertex="1">
          <mxGeometry x="814" y="343" width="10" height="80" as="geometry" />
        </mxCell>
        <mxCell id="3K25FO0Td4FVb8Lzs0hA-33" value="delete()" style="html=1;verticalAlign=bottom;endArrow=block;curved=0;rounded=0;fontSize=14;" parent="1" source="3K25FO0Td4FVb8Lzs0hA-30" target="3K25FO0Td4FVb8Lzs0hA-32" edge="1">
          <mxGeometry width="80" relative="1" as="geometry">
            <mxPoint x="666" y="393.5" as="sourcePoint" />
            <mxPoint x="886" y="393.5" as="targetPoint" />
            <Array as="points">
              <mxPoint x="790" y="366" />
            </Array>
          </mxGeometry>
        </mxCell>
        <mxCell id="3K25FO0Td4FVb8Lzs0hA-34" value="success" style="html=1;verticalAlign=bottom;endArrow=open;dashed=1;endSize=8;curved=0;rounded=0;fontSize=14;" parent="1" source="3K25FO0Td4FVb8Lzs0hA-32" target="3K25FO0Td4FVb8Lzs0hA-30" edge="1">
          <mxGeometry relative="1" as="geometry">
            <mxPoint x="706" y="402" as="targetPoint" />
            <mxPoint x="856" y="402" as="sourcePoint" />
            <Array as="points">
              <mxPoint x="777" y="402" />
            </Array>
          </mxGeometry>
        </mxCell>
        <mxCell id="3K25FO0Td4FVb8Lzs0hA-35" value="Ref" style="shape=umlFrame;whiteSpace=wrap;html=1;pointerEvents=0;fontSize=14;" parent="1" vertex="1">
          <mxGeometry x="130" y="552" width="730" height="40" as="geometry" />
        </mxCell>
        <mxCell id="3K25FO0Td4FVb8Lzs0hA-36" value="Đăng nhâp" style="text;html=1;align=center;verticalAlign=middle;resizable=0;points=[];autosize=1;strokeColor=none;fillColor=none;fontSize=14;" parent="1" vertex="1">
          <mxGeometry x="455" y="557" width="90" height="30" as="geometry" />
        </mxCell>
        <mxCell id="3K25FO0Td4FVb8Lzs0hA-43" value="delete()" style="html=1;verticalAlign=bottom;endArrow=block;curved=0;rounded=0;fontSize=14;" parent="1" edge="1">
          <mxGeometry width="80" relative="1" as="geometry">
            <mxPoint x="545" y="343" as="sourcePoint" />
            <mxPoint x="679" y="343" as="targetPoint" />
            <Array as="points" />
          </mxGeometry>
        </mxCell>
        <mxCell id="3K25FO0Td4FVb8Lzs0hA-44" value="success" style="html=1;verticalAlign=bottom;endArrow=open;dashed=1;endSize=8;curved=0;rounded=0;fontSize=14;" parent="1" source="3K25FO0Td4FVb8Lzs0hA-30" edge="1">
          <mxGeometry relative="1" as="geometry">
            <mxPoint x="545" y="412" as="targetPoint" />
            <mxPoint x="679" y="408.5" as="sourcePoint" />
            <Array as="points">
              <mxPoint x="642" y="412" />
            </Array>
          </mxGeometry>
        </mxCell>
      </root>
    </mxGraphModel>
  </diagram>
  <diagram id="FBph5Fd0KtZB0xrMbK14" name="Đăng ký">
    <mxGraphModel dx="1368" dy="838" grid="1" gridSize="10" guides="1" tooltips="1" connect="1" arrows="1" fold="1" page="1" pageScale="1" pageWidth="850" pageHeight="1100" math="0" shadow="0">
      <root>
        <mxCell id="0" />
        <mxCell id="1" parent="0" />
        <mxCell id="Ir_GXyEUEloYrhcubAo1-1" value="User" style="shape=umlActor;verticalLabelPosition=bottom;verticalAlign=top;html=1;fontSize=14;" vertex="1" parent="1">
          <mxGeometry x="695" y="312" width="30" height="60" as="geometry" />
        </mxCell>
        <mxCell id="Ir_GXyEUEloYrhcubAo1-2" value="" style="endArrow=none;dashed=1;html=1;rounded=0;fontSize=14;" edge="1" parent="1">
          <mxGeometry width="50" height="50" relative="1" as="geometry">
            <mxPoint x="710" y="860" as="sourcePoint" />
            <mxPoint x="710" y="400" as="targetPoint" />
          </mxGeometry>
        </mxCell>
        <mxCell id="Ir_GXyEUEloYrhcubAo1-3" value="" style="html=1;points=[[0,0,0,0,5],[0,1,0,0,-5],[1,0,0,0,5],[1,1,0,0,-5]];perimeter=orthogonalPerimeter;outlineConnect=0;targetShapes=umlLifeline;portConstraint=eastwest;newEdgeStyle={&quot;curved&quot;:0,&quot;rounded&quot;:0};fontSize=14;" vertex="1" parent="1">
          <mxGeometry x="705" y="410" width="10" height="390" as="geometry" />
        </mxCell>
        <mxCell id="Ir_GXyEUEloYrhcubAo1-4" value="" style="shape=umlBoundary;whiteSpace=wrap;html=1;fontSize=14;" vertex="1" parent="1">
          <mxGeometry x="820" y="302" width="85" height="70" as="geometry" />
        </mxCell>
        <mxCell id="Ir_GXyEUEloYrhcubAo1-5" value="" style="endArrow=none;dashed=1;html=1;rounded=0;fontSize=14;" edge="1" parent="1">
          <mxGeometry width="50" height="50" relative="1" as="geometry">
            <mxPoint x="865" y="860" as="sourcePoint" />
            <mxPoint x="865" y="400" as="targetPoint" />
          </mxGeometry>
        </mxCell>
        <mxCell id="Ir_GXyEUEloYrhcubAo1-6" value="" style="html=1;points=[[0,0,0,0,5],[0,1,0,0,-5],[1,0,0,0,5],[1,1,0,0,-5]];perimeter=orthogonalPerimeter;outlineConnect=0;targetShapes=umlLifeline;portConstraint=eastwest;newEdgeStyle={&quot;curved&quot;:0,&quot;rounded&quot;:0};fontSize=14;" vertex="1" parent="1">
          <mxGeometry x="860" y="410" width="10" height="390" as="geometry" />
        </mxCell>
        <mxCell id="Ir_GXyEUEloYrhcubAo1-7" value="Enter infomation" style="html=1;verticalAlign=bottom;endArrow=block;curved=0;rounded=0;fontSize=14;" edge="1" parent="1" source="Ir_GXyEUEloYrhcubAo1-3" target="Ir_GXyEUEloYrhcubAo1-6">
          <mxGeometry width="80" relative="1" as="geometry">
            <mxPoint x="855" y="560" as="sourcePoint" />
            <mxPoint x="935" y="560" as="targetPoint" />
            <Array as="points">
              <mxPoint x="785" y="440" />
            </Array>
          </mxGeometry>
        </mxCell>
        <mxCell id="Ir_GXyEUEloYrhcubAo1-8" value="Show alert" style="html=1;verticalAlign=bottom;endArrow=block;curved=0;rounded=0;fontSize=14;" edge="1" parent="1" source="Ir_GXyEUEloYrhcubAo1-6" target="Ir_GXyEUEloYrhcubAo1-3">
          <mxGeometry width="80" relative="1" as="geometry">
            <mxPoint x="855" y="470" as="sourcePoint" />
            <mxPoint x="965" y="420" as="targetPoint" />
            <Array as="points">
              <mxPoint x="785" y="510" />
            </Array>
          </mxGeometry>
        </mxCell>
        <mxCell id="Ir_GXyEUEloYrhcubAo1-9" value="checkValid()" style="html=1;align=left;spacingLeft=2;endArrow=block;rounded=0;edgeStyle=orthogonalEdgeStyle;curved=0;rounded=0;fontSize=14;" edge="1" parent="1" source="Ir_GXyEUEloYrhcubAo1-6" target="Ir_GXyEUEloYrhcubAo1-6">
          <mxGeometry relative="1" as="geometry">
            <mxPoint x="955" y="410" as="sourcePoint" />
            <Array as="points">
              <mxPoint x="890" y="450" />
              <mxPoint x="890" y="470" />
            </Array>
            <mxPoint x="960" y="440.02857142857135" as="targetPoint" />
          </mxGeometry>
        </mxCell>
        <mxCell id="Ir_GXyEUEloYrhcubAo1-10" value="checkValid()" style="shape=umlFrame;whiteSpace=wrap;html=1;pointerEvents=0;width=90;height=30;fontSize=14;" vertex="1" parent="1">
          <mxGeometry x="575" y="480" width="940" height="350" as="geometry" />
        </mxCell>
        <mxCell id="Ir_GXyEUEloYrhcubAo1-11" value="" style="endArrow=none;dashed=1;html=1;rounded=0;fontSize=14;entryX=1.003;entryY=0.166;entryDx=0;entryDy=0;entryPerimeter=0;" edge="1" parent="1" target="Ir_GXyEUEloYrhcubAo1-10">
          <mxGeometry width="50" height="50" relative="1" as="geometry">
            <mxPoint x="575" y="540" as="sourcePoint" />
            <mxPoint x="1397" y="540" as="targetPoint" />
          </mxGeometry>
        </mxCell>
        <mxCell id="Ir_GXyEUEloYrhcubAo1-12" value="[Invalid]" style="text;html=1;align=center;verticalAlign=middle;resizable=0;points=[];autosize=1;strokeColor=none;fillColor=none;fontSize=14;" vertex="1" parent="1">
          <mxGeometry x="570" y="508" width="70" height="30" as="geometry" />
        </mxCell>
        <mxCell id="Ir_GXyEUEloYrhcubAo1-13" value="[Valid]" style="text;html=1;align=center;verticalAlign=middle;resizable=0;points=[];autosize=1;strokeColor=none;fillColor=none;fontSize=14;" vertex="1" parent="1">
          <mxGeometry x="575" y="538" width="60" height="30" as="geometry" />
        </mxCell>
        <mxCell id="Ir_GXyEUEloYrhcubAo1-14" value="" style="ellipse;shape=umlControl;whiteSpace=wrap;html=1;fontSize=14;" vertex="1" parent="1">
          <mxGeometry x="990" y="290" width="70" height="80" as="geometry" />
        </mxCell>
        <mxCell id="Ir_GXyEUEloYrhcubAo1-15" value="&lt;span style=&quot;text-wrap-mode: wrap;&quot;&gt;:UserController&lt;/span&gt;" style="text;html=1;align=center;verticalAlign=middle;resizable=0;points=[];autosize=1;strokeColor=none;fillColor=none;fontSize=14;" vertex="1" parent="1">
          <mxGeometry x="965" y="370" width="120" height="30" as="geometry" />
        </mxCell>
        <mxCell id="Ir_GXyEUEloYrhcubAo1-16" value="&lt;span style=&quot;text-wrap-mode: wrap;&quot;&gt;:RegisterForm&lt;/span&gt;" style="text;html=1;align=center;verticalAlign=middle;resizable=0;points=[];autosize=1;strokeColor=none;fillColor=none;fontSize=14;" vertex="1" parent="1">
          <mxGeometry x="810" y="372" width="110" height="30" as="geometry" />
        </mxCell>
        <mxCell id="Ir_GXyEUEloYrhcubAo1-17" value="" style="endArrow=none;dashed=1;html=1;rounded=0;fontSize=14;" edge="1" parent="1" target="Ir_GXyEUEloYrhcubAo1-15">
          <mxGeometry width="50" height="50" relative="1" as="geometry">
            <mxPoint x="1025" y="860" as="sourcePoint" />
            <mxPoint x="930" y="488" as="targetPoint" />
          </mxGeometry>
        </mxCell>
        <mxCell id="Ir_GXyEUEloYrhcubAo1-18" value="createAccount()" style="html=1;verticalAlign=bottom;endArrow=block;curved=0;rounded=0;fontSize=14;" edge="1" parent="1" target="Ir_GXyEUEloYrhcubAo1-19">
          <mxGeometry width="80" relative="1" as="geometry">
            <mxPoint x="870" y="586" as="sourcePoint" />
            <mxPoint x="975" y="586" as="targetPoint" />
            <Array as="points">
              <mxPoint x="955" y="586" />
            </Array>
          </mxGeometry>
        </mxCell>
        <mxCell id="Ir_GXyEUEloYrhcubAo1-19" value="" style="html=1;points=[[0,0,0,0,5],[0,1,0,0,-5],[1,0,0,0,5],[1,1,0,0,-5]];perimeter=orthogonalPerimeter;outlineConnect=0;targetShapes=umlLifeline;portConstraint=eastwest;newEdgeStyle={&quot;curved&quot;:0,&quot;rounded&quot;:0};fontSize=14;" vertex="1" parent="1">
          <mxGeometry x="1020" y="564" width="10" height="182" as="geometry" />
        </mxCell>
        <mxCell id="Ir_GXyEUEloYrhcubAo1-20" value="success" style="html=1;verticalAlign=bottom;endArrow=open;dashed=1;endSize=8;curved=0;rounded=0;fontSize=14;" edge="1" parent="1">
          <mxGeometry relative="1" as="geometry">
            <mxPoint x="868" y="726" as="targetPoint" />
            <mxPoint x="1018" y="726" as="sourcePoint" />
            <Array as="points">
              <mxPoint x="939" y="726" />
            </Array>
          </mxGeometry>
        </mxCell>
        <mxCell id="Ir_GXyEUEloYrhcubAo1-21" value="Show success" style="html=1;verticalAlign=bottom;endArrow=block;curved=0;rounded=0;fontSize=14;" edge="1" parent="1">
          <mxGeometry width="80" relative="1" as="geometry">
            <mxPoint x="858" y="738" as="sourcePoint" />
            <mxPoint x="713" y="738" as="targetPoint" />
            <Array as="points">
              <mxPoint x="783" y="738" />
            </Array>
          </mxGeometry>
        </mxCell>
        <mxCell id="Ir_GXyEUEloYrhcubAo1-22" value="" style="endArrow=none;dashed=1;html=1;rounded=0;fontSize=14;" edge="1" parent="1" source="Ir_GXyEUEloYrhcubAo1-28">
          <mxGeometry width="50" height="50" relative="1" as="geometry">
            <mxPoint x="1311" y="1054" as="sourcePoint" />
            <mxPoint x="1311" y="396" as="targetPoint" />
          </mxGeometry>
        </mxCell>
        <mxCell id="Ir_GXyEUEloYrhcubAo1-23" value="" style="shape=umlBoundary;whiteSpace=wrap;html=1;fontSize=14;" vertex="1" parent="1">
          <mxGeometry x="1259" y="290" width="100" height="80" as="geometry" />
        </mxCell>
        <mxCell id="Ir_GXyEUEloYrhcubAo1-24" value="&lt;span style=&quot;text-wrap-mode: wrap;&quot;&gt;:UserDatabase&lt;/span&gt;" style="text;html=1;align=center;verticalAlign=middle;resizable=0;points=[];autosize=1;strokeColor=none;fillColor=none;fontSize=14;" vertex="1" parent="1">
          <mxGeometry x="1249" y="368" width="120" height="30" as="geometry" />
        </mxCell>
        <mxCell id="Ir_GXyEUEloYrhcubAo1-25" value=":UserDatabase" style="shape=umlActor;verticalLabelPosition=bottom;verticalAlign=top;html=1;fontSize=14;" vertex="1" parent="1">
          <mxGeometry x="1429" y="311" width="30" height="60" as="geometry" />
        </mxCell>
        <mxCell id="Ir_GXyEUEloYrhcubAo1-26" value="" style="endArrow=none;dashed=1;html=1;rounded=0;fontSize=14;" edge="1" parent="1" source="Ir_GXyEUEloYrhcubAo1-30">
          <mxGeometry width="50" height="50" relative="1" as="geometry">
            <mxPoint x="1441" y="1055" as="sourcePoint" />
            <mxPoint x="1441" y="397" as="targetPoint" />
          </mxGeometry>
        </mxCell>
        <mxCell id="Ir_GXyEUEloYrhcubAo1-27" value="" style="endArrow=none;dashed=1;html=1;rounded=0;fontSize=14;" edge="1" parent="1" target="Ir_GXyEUEloYrhcubAo1-28">
          <mxGeometry width="50" height="50" relative="1" as="geometry">
            <mxPoint x="1311" y="860" as="sourcePoint" />
            <mxPoint x="1311" y="396" as="targetPoint" />
          </mxGeometry>
        </mxCell>
        <mxCell id="Ir_GXyEUEloYrhcubAo1-28" value="" style="html=1;points=[[0,0,0,0,5],[0,1,0,0,-5],[1,0,0,0,5],[1,1,0,0,-5]];perimeter=orthogonalPerimeter;outlineConnect=0;targetShapes=umlLifeline;portConstraint=eastwest;newEdgeStyle={&quot;curved&quot;:0,&quot;rounded&quot;:0};fontSize=14;" vertex="1" parent="1">
          <mxGeometry x="1304" y="606" width="10" height="80" as="geometry" />
        </mxCell>
        <mxCell id="Ir_GXyEUEloYrhcubAo1-29" value="" style="endArrow=none;dashed=1;html=1;rounded=0;fontSize=14;" edge="1" parent="1" target="Ir_GXyEUEloYrhcubAo1-30">
          <mxGeometry width="50" height="50" relative="1" as="geometry">
            <mxPoint x="1441" y="860" as="sourcePoint" />
            <mxPoint x="1441" y="397" as="targetPoint" />
          </mxGeometry>
        </mxCell>
        <mxCell id="Ir_GXyEUEloYrhcubAo1-30" value="" style="html=1;points=[[0,0,0,0,5],[0,1,0,0,-5],[1,0,0,0,5],[1,1,0,0,-5]];perimeter=orthogonalPerimeter;outlineConnect=0;targetShapes=umlLifeline;portConstraint=eastwest;newEdgeStyle={&quot;curved&quot;:0,&quot;rounded&quot;:0};fontSize=14;" vertex="1" parent="1">
          <mxGeometry x="1439" y="607" width="10" height="80" as="geometry" />
        </mxCell>
        <mxCell id="Ir_GXyEUEloYrhcubAo1-31" value="createUser()" style="html=1;verticalAlign=bottom;endArrow=block;curved=0;rounded=0;fontSize=14;" edge="1" parent="1" source="Ir_GXyEUEloYrhcubAo1-28" target="Ir_GXyEUEloYrhcubAo1-30">
          <mxGeometry width="80" relative="1" as="geometry">
            <mxPoint x="1291" y="657.5" as="sourcePoint" />
            <mxPoint x="1511" y="657.5" as="targetPoint" />
            <Array as="points">
              <mxPoint x="1415" y="630" />
            </Array>
          </mxGeometry>
        </mxCell>
        <mxCell id="Ir_GXyEUEloYrhcubAo1-32" value="success" style="html=1;verticalAlign=bottom;endArrow=open;dashed=1;endSize=8;curved=0;rounded=0;fontSize=14;" edge="1" parent="1" source="Ir_GXyEUEloYrhcubAo1-30" target="Ir_GXyEUEloYrhcubAo1-28">
          <mxGeometry relative="1" as="geometry">
            <mxPoint x="1331" y="666" as="targetPoint" />
            <mxPoint x="1481" y="666" as="sourcePoint" />
            <Array as="points">
              <mxPoint x="1402" y="666" />
            </Array>
          </mxGeometry>
        </mxCell>
        <mxCell id="Ir_GXyEUEloYrhcubAo1-33" value="" style="endArrow=none;dashed=1;html=1;rounded=0;fontSize=14;" edge="1" parent="1" source="Ir_GXyEUEloYrhcubAo1-35" target="Ir_GXyEUEloYrhcubAo1-37">
          <mxGeometry width="50" height="50" relative="1" as="geometry">
            <mxPoint x="1167" y="1064" as="sourcePoint" />
            <mxPoint x="1167" y="406" as="targetPoint" />
          </mxGeometry>
        </mxCell>
        <mxCell id="Ir_GXyEUEloYrhcubAo1-34" value="" style="endArrow=none;dashed=1;html=1;rounded=0;fontSize=14;" edge="1" parent="1" target="Ir_GXyEUEloYrhcubAo1-35">
          <mxGeometry width="50" height="50" relative="1" as="geometry">
            <mxPoint x="1167" y="860" as="sourcePoint" />
            <mxPoint x="1167" y="382" as="targetPoint" />
          </mxGeometry>
        </mxCell>
        <mxCell id="Ir_GXyEUEloYrhcubAo1-35" value="" style="html=1;points=[[0,0,0,0,5],[0,1,0,0,-5],[1,0,0,0,5],[1,1,0,0,-5]];perimeter=orthogonalPerimeter;outlineConnect=0;targetShapes=umlLifeline;portConstraint=eastwest;newEdgeStyle={&quot;curved&quot;:0,&quot;rounded&quot;:0};fontSize=14;" vertex="1" parent="1">
          <mxGeometry x="1160" y="586" width="10" height="110" as="geometry" />
        </mxCell>
        <mxCell id="Ir_GXyEUEloYrhcubAo1-36" value="" style="ellipse;shape=umlEntity;whiteSpace=wrap;html=1;fontSize=14;" vertex="1" parent="1">
          <mxGeometry x="1125" y="297" width="80" height="80" as="geometry" />
        </mxCell>
        <mxCell id="Ir_GXyEUEloYrhcubAo1-37" value="&lt;span style=&quot;text-wrap-mode: wrap;&quot;&gt;:User&lt;/span&gt;" style="text;html=1;align=center;verticalAlign=middle;resizable=0;points=[];autosize=1;strokeColor=none;fillColor=none;fontSize=14;" vertex="1" parent="1">
          <mxGeometry x="1135" y="375" width="60" height="30" as="geometry" />
        </mxCell>
        <mxCell id="Ir_GXyEUEloYrhcubAo1-38" value="createUser()" style="html=1;verticalAlign=bottom;endArrow=block;curved=0;rounded=0;fontSize=14;" edge="1" parent="1">
          <mxGeometry width="80" relative="1" as="geometry">
            <mxPoint x="1030" y="606" as="sourcePoint" />
            <mxPoint x="1160" y="606" as="targetPoint" />
            <Array as="points">
              <mxPoint x="1095" y="606" />
            </Array>
          </mxGeometry>
        </mxCell>
        <mxCell id="Ir_GXyEUEloYrhcubAo1-39" value="createUser()" style="html=1;verticalAlign=bottom;endArrow=block;curved=0;rounded=0;fontSize=14;" edge="1" parent="1">
          <mxGeometry width="80" relative="1" as="geometry">
            <mxPoint x="1170" y="616" as="sourcePoint" />
            <mxPoint x="1304" y="616" as="targetPoint" />
            <Array as="points">
              <mxPoint x="1239" y="616" />
            </Array>
          </mxGeometry>
        </mxCell>
        <mxCell id="Ir_GXyEUEloYrhcubAo1-40" value="success" style="html=1;verticalAlign=bottom;endArrow=open;dashed=1;endSize=8;curved=0;rounded=0;fontSize=14;" edge="1" parent="1" source="Ir_GXyEUEloYrhcubAo1-28" target="Ir_GXyEUEloYrhcubAo1-35">
          <mxGeometry relative="1" as="geometry">
            <mxPoint x="1179" y="672.5" as="targetPoint" />
            <mxPoint x="1304" y="672.5" as="sourcePoint" />
            <Array as="points">
              <mxPoint x="1267" y="676" />
            </Array>
          </mxGeometry>
        </mxCell>
        <mxCell id="Ir_GXyEUEloYrhcubAo1-41" value="success" style="html=1;verticalAlign=bottom;endArrow=open;dashed=1;endSize=8;curved=0;rounded=0;fontSize=14;" edge="1" parent="1">
          <mxGeometry relative="1" as="geometry">
            <mxPoint x="1030" y="696" as="targetPoint" />
            <mxPoint x="1164" y="696" as="sourcePoint" />
            <Array as="points">
              <mxPoint x="1127" y="696" />
            </Array>
          </mxGeometry>
        </mxCell>
      </root>
    </mxGraphModel>
  </diagram>
  <diagram id="PjvBnvVwaO9Oy80Y-ujl" name="Chọn ngôn ngữ">
    <mxGraphModel dx="1368" dy="838" grid="1" gridSize="10" guides="1" tooltips="1" connect="1" arrows="1" fold="1" page="1" pageScale="1" pageWidth="850" pageHeight="1100" math="0" shadow="0">
      <root>
        <mxCell id="0" />
        <mxCell id="1" parent="0" />
        <mxCell id="mrcUMZUzCQhbrgAQARCH-1" value="User" style="shape=umlActor;verticalLabelPosition=bottom;verticalAlign=top;html=1;fontSize=14;" parent="1" vertex="1">
          <mxGeometry x="210" y="132" width="30" height="60" as="geometry" />
        </mxCell>
        <mxCell id="mrcUMZUzCQhbrgAQARCH-2" value="" style="endArrow=none;dashed=1;html=1;rounded=0;fontSize=14;" parent="1" edge="1">
          <mxGeometry width="50" height="50" relative="1" as="geometry">
            <mxPoint x="225" y="480" as="sourcePoint" />
            <mxPoint x="225" y="220" as="targetPoint" />
          </mxGeometry>
        </mxCell>
        <mxCell id="mrcUMZUzCQhbrgAQARCH-3" value="" style="html=1;points=[[0,0,0,0,5],[0,1,0,0,-5],[1,0,0,0,5],[1,1,0,0,-5]];perimeter=orthogonalPerimeter;outlineConnect=0;targetShapes=umlLifeline;portConstraint=eastwest;newEdgeStyle={&quot;curved&quot;:0,&quot;rounded&quot;:0};fontSize=14;" parent="1" vertex="1">
          <mxGeometry x="220" y="230" width="10" height="220" as="geometry" />
        </mxCell>
        <mxCell id="mrcUMZUzCQhbrgAQARCH-4" value="" style="shape=umlBoundary;whiteSpace=wrap;html=1;fontSize=14;" parent="1" vertex="1">
          <mxGeometry x="365" y="122" width="85" height="70" as="geometry" />
        </mxCell>
        <mxCell id="mrcUMZUzCQhbrgAQARCH-5" value="" style="endArrow=none;dashed=1;html=1;rounded=0;fontSize=14;" parent="1" edge="1">
          <mxGeometry width="50" height="50" relative="1" as="geometry">
            <mxPoint x="410" y="480" as="sourcePoint" />
            <mxPoint x="410" y="220" as="targetPoint" />
          </mxGeometry>
        </mxCell>
        <mxCell id="mrcUMZUzCQhbrgAQARCH-6" value="" style="html=1;points=[[0,0,0,0,5],[0,1,0,0,-5],[1,0,0,0,5],[1,1,0,0,-5]];perimeter=orthogonalPerimeter;outlineConnect=0;targetShapes=umlLifeline;portConstraint=eastwest;newEdgeStyle={&quot;curved&quot;:0,&quot;rounded&quot;:0};fontSize=14;" parent="1" vertex="1">
          <mxGeometry x="405" y="230" width="10" height="220" as="geometry" />
        </mxCell>
        <mxCell id="mrcUMZUzCQhbrgAQARCH-7" value="Choose language" style="html=1;verticalAlign=bottom;endArrow=block;curved=0;rounded=0;fontSize=14;" parent="1" source="mrcUMZUzCQhbrgAQARCH-3" target="mrcUMZUzCQhbrgAQARCH-6" edge="1">
          <mxGeometry width="80" relative="1" as="geometry">
            <mxPoint x="370" y="380" as="sourcePoint" />
            <mxPoint x="450" y="380" as="targetPoint" />
            <Array as="points">
              <mxPoint x="300" y="260" />
            </Array>
          </mxGeometry>
        </mxCell>
        <mxCell id="mrcUMZUzCQhbrgAQARCH-14" value="" style="ellipse;shape=umlControl;whiteSpace=wrap;html=1;fontSize=14;" parent="1" vertex="1">
          <mxGeometry x="535" y="110" width="70" height="80" as="geometry" />
        </mxCell>
        <mxCell id="mrcUMZUzCQhbrgAQARCH-15" value="&lt;span style=&quot;text-wrap-mode: wrap;&quot;&gt;:LanguageController&lt;/span&gt;" style="text;html=1;align=center;verticalAlign=middle;resizable=0;points=[];autosize=1;strokeColor=none;fillColor=none;fontSize=14;" parent="1" vertex="1">
          <mxGeometry x="495" y="190" width="150" height="30" as="geometry" />
        </mxCell>
        <mxCell id="mrcUMZUzCQhbrgAQARCH-16" value="&lt;span style=&quot;text-wrap-mode: wrap;&quot;&gt;:LanguageView&lt;/span&gt;" style="text;html=1;align=center;verticalAlign=middle;resizable=0;points=[];autosize=1;strokeColor=none;fillColor=none;fontSize=14;" parent="1" vertex="1">
          <mxGeometry x="350" y="192" width="120" height="30" as="geometry" />
        </mxCell>
        <mxCell id="mrcUMZUzCQhbrgAQARCH-17" value="" style="endArrow=none;dashed=1;html=1;rounded=0;fontSize=14;" parent="1" target="mrcUMZUzCQhbrgAQARCH-15" edge="1">
          <mxGeometry width="50" height="50" relative="1" as="geometry">
            <mxPoint x="570" y="480" as="sourcePoint" />
            <mxPoint x="475" y="308" as="targetPoint" />
          </mxGeometry>
        </mxCell>
        <mxCell id="mrcUMZUzCQhbrgAQARCH-18" value="changeLanguage()" style="html=1;verticalAlign=bottom;endArrow=block;curved=0;rounded=0;fontSize=14;" parent="1" target="mrcUMZUzCQhbrgAQARCH-19" edge="1">
          <mxGeometry width="80" relative="1" as="geometry">
            <mxPoint x="417" y="282" as="sourcePoint" />
            <mxPoint x="522" y="282" as="targetPoint" />
            <Array as="points">
              <mxPoint x="502" y="282" />
            </Array>
          </mxGeometry>
        </mxCell>
        <mxCell id="mrcUMZUzCQhbrgAQARCH-19" value="" style="html=1;points=[[0,0,0,0,5],[0,1,0,0,-5],[1,0,0,0,5],[1,1,0,0,-5]];perimeter=orthogonalPerimeter;outlineConnect=0;targetShapes=umlLifeline;portConstraint=eastwest;newEdgeStyle={&quot;curved&quot;:0,&quot;rounded&quot;:0};fontSize=14;" parent="1" vertex="1">
          <mxGeometry x="567" y="260" width="10" height="120" as="geometry" />
        </mxCell>
        <mxCell id="mrcUMZUzCQhbrgAQARCH-20" value="success" style="html=1;verticalAlign=bottom;endArrow=open;dashed=1;endSize=8;curved=0;rounded=0;fontSize=14;" parent="1" edge="1">
          <mxGeometry relative="1" as="geometry">
            <mxPoint x="415" y="370" as="targetPoint" />
            <mxPoint x="565" y="370" as="sourcePoint" />
            <Array as="points">
              <mxPoint x="486" y="370" />
            </Array>
          </mxGeometry>
        </mxCell>
        <mxCell id="mrcUMZUzCQhbrgAQARCH-21" value="Display choosen language" style="html=1;verticalAlign=bottom;endArrow=block;curved=0;rounded=0;fontSize=14;" parent="1" edge="1">
          <mxGeometry width="80" relative="1" as="geometry">
            <mxPoint x="405" y="420" as="sourcePoint" />
            <mxPoint x="230" y="420" as="targetPoint" />
            <Array as="points">
              <mxPoint x="300" y="420" />
            </Array>
          </mxGeometry>
        </mxCell>
      </root>
    </mxGraphModel>
  </diagram>
  <diagram id="uJERsNMzLXeGkurvsiHy" name="Đăng ký">
    <mxGraphModel dx="1362" dy="843" grid="1" gridSize="10" guides="1" tooltips="1" connect="1" arrows="1" fold="1" page="1" pageScale="1" pageWidth="850" pageHeight="1100" math="0" shadow="0">
      <root>
        <mxCell id="0" />
        <mxCell id="1" parent="0" />
        <mxCell id="dVUe5T9XPqoWPwaL-8Pp-6" style="edgeStyle=orthogonalEdgeStyle;rounded=0;orthogonalLoop=1;jettySize=auto;html=1;endArrow=none;startFill=0;" parent="1" source="UOFOF_NRHAgymPi9g8NE-5" target="UOFOF_NRHAgymPi9g8NE-6" edge="1">
          <mxGeometry relative="1" as="geometry" />
        </mxCell>
        <mxCell id="UOFOF_NRHAgymPi9g8NE-5" value="&lt;p style=&quot;margin:0px;margin-top:4px;text-align:center;&quot;&gt;&lt;i&gt;&amp;lt;&amp;lt;boundary&amp;gt;&amp;gt;&lt;/i&gt;&lt;br&gt;&lt;b&gt;RegisterForm&lt;/b&gt;&lt;/p&gt;&lt;hr size=&quot;1&quot; style=&quot;border-style:solid;&quot;&gt;&lt;p style=&quot;margin:0px;margin-left:4px;&quot;&gt;&lt;br&gt;&lt;br&gt;&lt;/p&gt;&lt;hr size=&quot;1&quot; style=&quot;border-style:solid;&quot;&gt;&lt;p style=&quot;margin:0px;margin-left:4px;&quot;&gt;displayForm()&lt;/p&gt;&lt;p style=&quot;margin:0px;margin-left:4px;&quot;&gt;checkValid()&lt;/p&gt;&lt;p style=&quot;margin:0px;margin-left:4px;&quot;&gt;displayAlert()&lt;/p&gt;" style="verticalAlign=top;align=left;overflow=fill;html=1;whiteSpace=wrap;" parent="1" vertex="1">
          <mxGeometry x="60" y="260" width="190" height="140" as="geometry" />
        </mxCell>
        <mxCell id="dVUe5T9XPqoWPwaL-8Pp-12" style="edgeStyle=orthogonalEdgeStyle;rounded=0;orthogonalLoop=1;jettySize=auto;html=1;endArrow=none;startFill=0;" parent="1" source="UOFOF_NRHAgymPi9g8NE-6" target="UOFOF_NRHAgymPi9g8NE-7" edge="1">
          <mxGeometry relative="1" as="geometry" />
        </mxCell>
        <mxCell id="dVUe5T9XPqoWPwaL-8Pp-15" style="edgeStyle=orthogonalEdgeStyle;rounded=0;orthogonalLoop=1;jettySize=auto;html=1;endArrow=none;startFill=0;entryX=0.211;entryY=0.013;entryDx=0;entryDy=0;entryPerimeter=0;" parent="1" source="UOFOF_NRHAgymPi9g8NE-6" target="dVUe5T9XPqoWPwaL-8Pp-1" edge="1">
          <mxGeometry relative="1" as="geometry" />
        </mxCell>
        <mxCell id="UOFOF_NRHAgymPi9g8NE-6" value="&lt;p style=&quot;margin:0px;margin-top:4px;text-align:center;&quot;&gt;&lt;i&gt;&amp;lt;&amp;lt;controller&amp;gt;&amp;gt;&lt;/i&gt;&lt;br&gt;&lt;b&gt;UserController&lt;/b&gt;&lt;/p&gt;&lt;hr size=&quot;1&quot; style=&quot;border-style:solid;&quot;&gt;&lt;p style=&quot;margin:0px;margin-left:4px;&quot;&gt;&lt;br&gt;&lt;br&gt;&lt;/p&gt;&lt;hr size=&quot;1&quot; style=&quot;border-style:solid;&quot;&gt;&lt;p style=&quot;margin:0px;margin-left:4px;&quot;&gt;createUser()&lt;/p&gt;&lt;p style=&quot;margin:0px;margin-left:4px;&quot;&gt;checkUser()&lt;/p&gt;" style="verticalAlign=top;align=left;overflow=fill;html=1;whiteSpace=wrap;" parent="1" vertex="1">
          <mxGeometry x="330" y="260" width="190" height="140" as="geometry" />
        </mxCell>
        <mxCell id="dVUe5T9XPqoWPwaL-8Pp-18" style="edgeStyle=orthogonalEdgeStyle;rounded=0;orthogonalLoop=1;jettySize=auto;html=1;endArrow=none;startFill=0;" parent="1" source="UOFOF_NRHAgymPi9g8NE-7" target="dVUe5T9XPqoWPwaL-8Pp-1" edge="1">
          <mxGeometry relative="1" as="geometry">
            <Array as="points">
              <mxPoint x="705" y="470" />
              <mxPoint x="590" y="470" />
            </Array>
          </mxGeometry>
        </mxCell>
        <mxCell id="UOFOF_NRHAgymPi9g8NE-7" value="&lt;p style=&quot;margin:0px;margin-top:4px;text-align:center;&quot;&gt;&lt;i&gt;&amp;lt;&amp;lt;boundary&amp;gt;&amp;gt;&lt;/i&gt;&lt;br&gt;&lt;b&gt;UserDatabase&lt;/b&gt;&lt;/p&gt;&lt;hr size=&quot;1&quot; style=&quot;border-style:solid;&quot;&gt;&lt;p style=&quot;margin:0px;margin-left:4px;&quot;&gt;&lt;br&gt;&lt;br&gt;&lt;/p&gt;&lt;hr size=&quot;1&quot; style=&quot;border-style:solid;&quot;&gt;&lt;p style=&quot;margin:0px;margin-left:4px;&quot;&gt;createUser()&lt;/p&gt;&lt;p style=&quot;margin:0px;margin-left:4px;&quot;&gt;&lt;br&gt;&lt;/p&gt;" style="verticalAlign=top;align=left;overflow=fill;html=1;whiteSpace=wrap;" parent="1" vertex="1">
          <mxGeometry x="610" y="260" width="190" height="140" as="geometry" />
        </mxCell>
        <mxCell id="dVUe5T9XPqoWPwaL-8Pp-1" value="&lt;p style=&quot;margin:0px;margin-top:4px;text-align:center;&quot;&gt;&lt;i&gt;&amp;lt;&amp;lt;entity&amp;gt;&amp;gt;&lt;/i&gt;&lt;br&gt;&lt;b&gt;User&lt;/b&gt;&lt;/p&gt;&lt;hr size=&quot;1&quot; style=&quot;border-style:solid;&quot;&gt;&lt;p style=&quot;margin:0px;margin-left:4px;&quot;&gt;username&lt;/p&gt;&lt;p style=&quot;margin:0px;margin-left:4px;&quot;&gt;phonenumber&lt;/p&gt;&lt;p style=&quot;margin:0px;margin-left:4px;&quot;&gt;gmail&lt;/p&gt;&lt;p style=&quot;margin:0px;margin-left:4px;&quot;&gt;password&lt;/p&gt;&lt;hr size=&quot;1&quot; style=&quot;border-style:solid;&quot;&gt;&lt;p style=&quot;margin:0px;margin-left:4px;&quot;&gt;&lt;br&gt;&lt;/p&gt;" style="verticalAlign=top;align=left;overflow=fill;html=1;whiteSpace=wrap;" parent="1" vertex="1">
          <mxGeometry x="440" y="540" width="190" height="150" as="geometry" />
        </mxCell>
        <mxCell id="dVUe5T9XPqoWPwaL-8Pp-7" value="1" style="text;html=1;align=center;verticalAlign=middle;resizable=0;points=[];autosize=1;strokeColor=none;fillColor=none;" parent="1" vertex="1">
          <mxGeometry x="245" y="310" width="30" height="30" as="geometry" />
        </mxCell>
        <mxCell id="dVUe5T9XPqoWPwaL-8Pp-9" value="1" style="text;html=1;align=center;verticalAlign=middle;resizable=0;points=[];autosize=1;strokeColor=none;fillColor=none;" parent="1" vertex="1">
          <mxGeometry x="300" y="310" width="30" height="30" as="geometry" />
        </mxCell>
        <mxCell id="dVUe5T9XPqoWPwaL-8Pp-13" value="1" style="text;html=1;align=center;verticalAlign=middle;resizable=0;points=[];autosize=1;strokeColor=none;fillColor=none;" parent="1" vertex="1">
          <mxGeometry x="520" y="310" width="30" height="30" as="geometry" />
        </mxCell>
        <mxCell id="dVUe5T9XPqoWPwaL-8Pp-14" value="1" style="text;html=1;align=center;verticalAlign=middle;resizable=0;points=[];autosize=1;strokeColor=none;fillColor=none;" parent="1" vertex="1">
          <mxGeometry x="580" y="310" width="30" height="30" as="geometry" />
        </mxCell>
        <mxCell id="dVUe5T9XPqoWPwaL-8Pp-16" value="1" style="text;html=1;align=center;verticalAlign=middle;resizable=0;points=[];autosize=1;strokeColor=none;fillColor=none;" parent="1" vertex="1">
          <mxGeometry x="425" y="398" width="30" height="30" as="geometry" />
        </mxCell>
        <mxCell id="dVUe5T9XPqoWPwaL-8Pp-17" value="1" style="text;html=1;align=center;verticalAlign=middle;resizable=0;points=[];autosize=1;strokeColor=none;fillColor=none;" parent="1" vertex="1">
          <mxGeometry x="480" y="510" width="30" height="30" as="geometry" />
        </mxCell>
        <mxCell id="dVUe5T9XPqoWPwaL-8Pp-19" value="1" style="text;html=1;align=center;verticalAlign=middle;resizable=0;points=[];autosize=1;strokeColor=none;fillColor=none;" parent="1" vertex="1">
          <mxGeometry x="705" y="398" width="30" height="30" as="geometry" />
        </mxCell>
        <mxCell id="dVUe5T9XPqoWPwaL-8Pp-20" value="1" style="text;html=1;align=center;verticalAlign=middle;resizable=0;points=[];autosize=1;strokeColor=none;fillColor=none;" parent="1" vertex="1">
          <mxGeometry x="565" y="518" width="30" height="30" as="geometry" />
        </mxCell>
      </root>
    </mxGraphModel>
  </diagram>
  <diagram id="CEeYbMMcg_x2BrfdN0sk" name="Đăng nhập">
    <mxGraphModel dx="1360" dy="843" grid="1" gridSize="10" guides="1" tooltips="1" connect="1" arrows="1" fold="1" page="1" pageScale="1" pageWidth="850" pageHeight="1100" math="0" shadow="0">
      <root>
        <mxCell id="0" />
        <mxCell id="1" parent="0" />
        <mxCell id="s-9jwznaA6joJJbevoUq-1" style="edgeStyle=orthogonalEdgeStyle;rounded=0;orthogonalLoop=1;jettySize=auto;html=1;endArrow=none;startFill=0;" parent="1" source="s-9jwznaA6joJJbevoUq-2" target="s-9jwznaA6joJJbevoUq-5" edge="1">
          <mxGeometry relative="1" as="geometry" />
        </mxCell>
        <mxCell id="s-9jwznaA6joJJbevoUq-2" value="&lt;p style=&quot;margin:0px;margin-top:4px;text-align:center;&quot;&gt;&lt;i&gt;&amp;lt;&amp;lt;boundary&amp;gt;&amp;gt;&lt;/i&gt;&lt;br&gt;&lt;b&gt;LoginForm&lt;/b&gt;&lt;/p&gt;&lt;hr size=&quot;1&quot; style=&quot;border-style:solid;&quot;&gt;&lt;p style=&quot;margin:0px;margin-left:4px;&quot;&gt;&lt;br&gt;&lt;br&gt;&lt;/p&gt;&lt;hr size=&quot;1&quot; style=&quot;border-style:solid;&quot;&gt;&lt;p style=&quot;margin:0px;margin-left:4px;&quot;&gt;displayForm()&lt;/p&gt;&lt;p style=&quot;margin:0px;margin-left:4px;&quot;&gt;checkValid()&lt;/p&gt;&lt;p style=&quot;margin:0px;margin-left:4px;&quot;&gt;displayAlert()&lt;/p&gt;" style="verticalAlign=top;align=left;overflow=fill;html=1;whiteSpace=wrap;" parent="1" vertex="1">
          <mxGeometry x="350" y="570" width="190" height="140" as="geometry" />
        </mxCell>
        <mxCell id="s-9jwznaA6joJJbevoUq-3" style="edgeStyle=orthogonalEdgeStyle;rounded=0;orthogonalLoop=1;jettySize=auto;html=1;endArrow=none;startFill=0;" parent="1" source="s-9jwznaA6joJJbevoUq-5" target="s-9jwznaA6joJJbevoUq-7" edge="1">
          <mxGeometry relative="1" as="geometry" />
        </mxCell>
        <mxCell id="s-9jwznaA6joJJbevoUq-5" value="&lt;p style=&quot;margin:0px;margin-top:4px;text-align:center;&quot;&gt;&lt;i&gt;&amp;lt;&amp;lt;controller&amp;gt;&amp;gt;&lt;/i&gt;&lt;br&gt;&lt;b&gt;UserController&lt;/b&gt;&lt;/p&gt;&lt;hr size=&quot;1&quot; style=&quot;border-style:solid;&quot;&gt;&lt;p style=&quot;margin:0px;margin-left:4px;&quot;&gt;&lt;br&gt;&lt;br&gt;&lt;/p&gt;&lt;hr size=&quot;1&quot; style=&quot;border-style:solid;&quot;&gt;&lt;p style=&quot;margin:0px;margin-left:4px;&quot;&gt;&lt;span style=&quot;background-color: transparent; color: light-dark(rgb(0, 0, 0), rgb(255, 255, 255));&quot;&gt;checkInfo()&lt;/span&gt;&lt;/p&gt;" style="verticalAlign=top;align=left;overflow=fill;html=1;whiteSpace=wrap;" parent="1" vertex="1">
          <mxGeometry x="620" y="570" width="190" height="140" as="geometry" />
        </mxCell>
        <mxCell id="s-9jwznaA6joJJbevoUq-7" value="&lt;p style=&quot;margin:0px;margin-top:4px;text-align:center;&quot;&gt;&lt;i&gt;&amp;lt;&amp;lt;boundary&amp;gt;&amp;gt;&lt;/i&gt;&lt;br&gt;&lt;b&gt;UserDatabase&lt;/b&gt;&lt;/p&gt;&lt;hr size=&quot;1&quot; style=&quot;border-style:solid;&quot;&gt;&lt;p style=&quot;margin:0px;margin-left:4px;&quot;&gt;&lt;br&gt;&lt;br&gt;&lt;/p&gt;&lt;hr size=&quot;1&quot; style=&quot;border-style:solid;&quot;&gt;&lt;p style=&quot;margin:0px;margin-left:4px;&quot;&gt;checkUserInfo()&lt;/p&gt;" style="verticalAlign=top;align=left;overflow=fill;html=1;whiteSpace=wrap;" parent="1" vertex="1">
          <mxGeometry x="900" y="570" width="190" height="140" as="geometry" />
        </mxCell>
        <mxCell id="s-9jwznaA6joJJbevoUq-9" value="1" style="text;html=1;align=center;verticalAlign=middle;resizable=0;points=[];autosize=1;strokeColor=none;fillColor=none;" parent="1" vertex="1">
          <mxGeometry x="535" y="620" width="30" height="30" as="geometry" />
        </mxCell>
        <mxCell id="s-9jwznaA6joJJbevoUq-10" value="1" style="text;html=1;align=center;verticalAlign=middle;resizable=0;points=[];autosize=1;strokeColor=none;fillColor=none;" parent="1" vertex="1">
          <mxGeometry x="590" y="620" width="30" height="30" as="geometry" />
        </mxCell>
        <mxCell id="s-9jwznaA6joJJbevoUq-11" value="1" style="text;html=1;align=center;verticalAlign=middle;resizable=0;points=[];autosize=1;strokeColor=none;fillColor=none;" parent="1" vertex="1">
          <mxGeometry x="810" y="620" width="30" height="30" as="geometry" />
        </mxCell>
        <mxCell id="s-9jwznaA6joJJbevoUq-12" value="1" style="text;html=1;align=center;verticalAlign=middle;resizable=0;points=[];autosize=1;strokeColor=none;fillColor=none;" parent="1" vertex="1">
          <mxGeometry x="870" y="620" width="30" height="30" as="geometry" />
        </mxCell>
        <mxCell id="EyPvfp4Cfxo3ZvkasC0c-1" value="&lt;p style=&quot;margin:0px;margin-top:4px;text-align:center;&quot;&gt;&lt;i&gt;&amp;lt;&amp;lt;entity&amp;gt;&amp;gt;&lt;/i&gt;&lt;br&gt;&lt;b&gt;User&lt;/b&gt;&lt;/p&gt;&lt;hr size=&quot;1&quot; style=&quot;border-style:solid;&quot;&gt;&lt;p style=&quot;margin:0px;margin-left:4px;&quot;&gt;username&lt;/p&gt;&lt;p style=&quot;margin:0px;margin-left:4px;&quot;&gt;phonenumber&lt;/p&gt;&lt;p style=&quot;margin:0px;margin-left:4px;&quot;&gt;gmail&lt;/p&gt;&lt;p style=&quot;margin:0px;margin-left:4px;&quot;&gt;password&lt;/p&gt;&lt;hr size=&quot;1&quot; style=&quot;border-style:solid;&quot;&gt;&lt;p style=&quot;margin:0px;margin-left:4px;&quot;&gt;&lt;br&gt;&lt;/p&gt;" style="verticalAlign=top;align=left;overflow=fill;html=1;whiteSpace=wrap;" vertex="1" parent="1">
          <mxGeometry x="620" y="800" width="190" height="150" as="geometry" />
        </mxCell>
        <mxCell id="EyPvfp4Cfxo3ZvkasC0c-2" style="edgeStyle=orthogonalEdgeStyle;rounded=0;orthogonalLoop=1;jettySize=auto;html=1;endArrow=none;startFill=0;" edge="1" parent="1" source="s-9jwznaA6joJJbevoUq-5" target="EyPvfp4Cfxo3ZvkasC0c-1">
          <mxGeometry relative="1" as="geometry">
            <mxPoint x="820" y="650" as="sourcePoint" />
            <mxPoint x="910" y="650" as="targetPoint" />
          </mxGeometry>
        </mxCell>
        <mxCell id="EyPvfp4Cfxo3ZvkasC0c-3" value="1" style="text;html=1;align=center;verticalAlign=middle;resizable=0;points=[];autosize=1;strokeColor=none;fillColor=none;" vertex="1" parent="1">
          <mxGeometry x="715" y="708" width="30" height="30" as="geometry" />
        </mxCell>
        <mxCell id="EyPvfp4Cfxo3ZvkasC0c-4" value="1" style="text;html=1;align=center;verticalAlign=middle;resizable=0;points=[];autosize=1;strokeColor=none;fillColor=none;" vertex="1" parent="1">
          <mxGeometry x="710" y="770" width="30" height="30" as="geometry" />
        </mxCell>
      </root>
    </mxGraphModel>
  </diagram>
  <diagram id="GuGUPC5agcvL1i9cO1H-" name="Quên mật khẩu">
    <mxGraphModel dx="1362" dy="843" grid="1" gridSize="10" guides="1" tooltips="1" connect="1" arrows="1" fold="1" page="1" pageScale="1" pageWidth="850" pageHeight="1100" math="0" shadow="0">
      <root>
        <mxCell id="0" />
        <mxCell id="1" parent="0" />
        <mxCell id="9FH_6vf23S6A9Upz6f67-1" style="edgeStyle=orthogonalEdgeStyle;rounded=0;orthogonalLoop=1;jettySize=auto;html=1;endArrow=none;startFill=0;" parent="1" source="9FH_6vf23S6A9Upz6f67-2" target="9FH_6vf23S6A9Upz6f67-5" edge="1">
          <mxGeometry relative="1" as="geometry" />
        </mxCell>
        <mxCell id="9FH_6vf23S6A9Upz6f67-2" value="&lt;p style=&quot;margin:0px;margin-top:4px;text-align:center;&quot;&gt;&lt;i&gt;&amp;lt;&amp;lt;boundary&amp;gt;&amp;gt;&lt;/i&gt;&lt;br&gt;&lt;b&gt;NewPasswordForm&lt;/b&gt;&lt;/p&gt;&lt;hr size=&quot;1&quot; style=&quot;border-style:solid;&quot;&gt;&lt;p style=&quot;margin:0px;margin-left:4px;&quot;&gt;&lt;br&gt;&lt;br&gt;&lt;/p&gt;&lt;hr size=&quot;1&quot; style=&quot;border-style:solid;&quot;&gt;&lt;p style=&quot;margin:0px;margin-left:4px;&quot;&gt;displayForm()&lt;/p&gt;&lt;p style=&quot;margin:0px;margin-left:4px;&quot;&gt;checkValid()&lt;/p&gt;&lt;p style=&quot;margin:0px;margin-left:4px;&quot;&gt;displayAlert()&lt;/p&gt;" style="verticalAlign=top;align=left;overflow=fill;html=1;whiteSpace=wrap;" parent="1" vertex="1">
          <mxGeometry x="510" y="630" width="190" height="140" as="geometry" />
        </mxCell>
        <mxCell id="9FH_6vf23S6A9Upz6f67-3" style="edgeStyle=orthogonalEdgeStyle;rounded=0;orthogonalLoop=1;jettySize=auto;html=1;endArrow=none;startFill=0;" parent="1" source="9FH_6vf23S6A9Upz6f67-5" target="9FH_6vf23S6A9Upz6f67-7" edge="1">
          <mxGeometry relative="1" as="geometry" />
        </mxCell>
        <mxCell id="9FH_6vf23S6A9Upz6f67-4" style="edgeStyle=orthogonalEdgeStyle;rounded=0;orthogonalLoop=1;jettySize=auto;html=1;endArrow=none;startFill=0;entryX=0.211;entryY=0.013;entryDx=0;entryDy=0;entryPerimeter=0;" parent="1" source="9FH_6vf23S6A9Upz6f67-5" target="9FH_6vf23S6A9Upz6f67-8" edge="1">
          <mxGeometry relative="1" as="geometry" />
        </mxCell>
        <mxCell id="9FH_6vf23S6A9Upz6f67-5" value="&lt;p style=&quot;margin:0px;margin-top:4px;text-align:center;&quot;&gt;&lt;i&gt;&amp;lt;&amp;lt;controller&amp;gt;&amp;gt;&lt;/i&gt;&lt;br&gt;&lt;b&gt;UserController&lt;/b&gt;&lt;/p&gt;&lt;hr size=&quot;1&quot; style=&quot;border-style:solid;&quot;&gt;&lt;p style=&quot;margin:0px;margin-left:4px;&quot;&gt;&lt;br&gt;&lt;br&gt;&lt;/p&gt;&lt;hr size=&quot;1&quot; style=&quot;border-style:solid;&quot;&gt;&lt;p style=&quot;margin:0px;margin-left:4px;&quot;&gt;checkInfo()&lt;/p&gt;&lt;p style=&quot;margin:0px;margin-left:4px;&quot;&gt;getNewPassword()&lt;/p&gt;" style="verticalAlign=top;align=left;overflow=fill;html=1;whiteSpace=wrap;" parent="1" vertex="1">
          <mxGeometry x="780" y="630" width="190" height="140" as="geometry" />
        </mxCell>
        <mxCell id="9FH_6vf23S6A9Upz6f67-6" style="edgeStyle=orthogonalEdgeStyle;rounded=0;orthogonalLoop=1;jettySize=auto;html=1;endArrow=none;startFill=0;" parent="1" source="9FH_6vf23S6A9Upz6f67-7" target="9FH_6vf23S6A9Upz6f67-8" edge="1">
          <mxGeometry relative="1" as="geometry">
            <Array as="points">
              <mxPoint x="1155" y="840" />
              <mxPoint x="1040" y="840" />
            </Array>
          </mxGeometry>
        </mxCell>
        <mxCell id="9FH_6vf23S6A9Upz6f67-7" value="&lt;p style=&quot;margin:0px;margin-top:4px;text-align:center;&quot;&gt;&lt;i&gt;&amp;lt;&amp;lt;boundary&amp;gt;&amp;gt;&lt;/i&gt;&lt;br&gt;&lt;b&gt;UserDatabase&lt;/b&gt;&lt;/p&gt;&lt;hr size=&quot;1&quot; style=&quot;border-style:solid;&quot;&gt;&lt;p style=&quot;margin:0px;margin-left:4px;&quot;&gt;&lt;br&gt;&lt;br&gt;&lt;/p&gt;&lt;hr size=&quot;1&quot; style=&quot;border-style:solid;&quot;&gt;&lt;p style=&quot;margin:0px;margin-left:4px;&quot;&gt;updatePassword()&lt;/p&gt;&lt;p style=&quot;margin:0px;margin-left:4px;&quot;&gt;&lt;br&gt;&lt;/p&gt;" style="verticalAlign=top;align=left;overflow=fill;html=1;whiteSpace=wrap;" parent="1" vertex="1">
          <mxGeometry x="1060" y="630" width="190" height="140" as="geometry" />
        </mxCell>
        <mxCell id="9FH_6vf23S6A9Upz6f67-8" value="&lt;p style=&quot;margin:0px;margin-top:4px;text-align:center;&quot;&gt;&lt;i&gt;&amp;lt;&amp;lt;entity&amp;gt;&amp;gt;&lt;/i&gt;&lt;br&gt;&lt;b&gt;User&lt;/b&gt;&lt;/p&gt;&lt;hr size=&quot;1&quot; style=&quot;border-style:solid;&quot;&gt;&lt;p style=&quot;margin:0px;margin-left:4px;&quot;&gt;username&lt;/p&gt;&lt;p style=&quot;margin:0px;margin-left:4px;&quot;&gt;phonenumber&lt;/p&gt;&lt;p style=&quot;margin:0px;margin-left:4px;&quot;&gt;gmail&lt;/p&gt;&lt;p style=&quot;margin:0px;margin-left:4px;&quot;&gt;password&lt;/p&gt;&lt;hr size=&quot;1&quot; style=&quot;border-style:solid;&quot;&gt;&lt;p style=&quot;margin:0px;margin-left:4px;&quot;&gt;&lt;br&gt;&lt;/p&gt;" style="verticalAlign=top;align=left;overflow=fill;html=1;whiteSpace=wrap;" parent="1" vertex="1">
          <mxGeometry x="890" y="910" width="190" height="150" as="geometry" />
        </mxCell>
        <mxCell id="9FH_6vf23S6A9Upz6f67-9" value="1" style="text;html=1;align=center;verticalAlign=middle;resizable=0;points=[];autosize=1;strokeColor=none;fillColor=none;" parent="1" vertex="1">
          <mxGeometry x="695" y="680" width="30" height="30" as="geometry" />
        </mxCell>
        <mxCell id="9FH_6vf23S6A9Upz6f67-10" value="1" style="text;html=1;align=center;verticalAlign=middle;resizable=0;points=[];autosize=1;strokeColor=none;fillColor=none;" parent="1" vertex="1">
          <mxGeometry x="750" y="680" width="30" height="30" as="geometry" />
        </mxCell>
        <mxCell id="9FH_6vf23S6A9Upz6f67-11" value="1" style="text;html=1;align=center;verticalAlign=middle;resizable=0;points=[];autosize=1;strokeColor=none;fillColor=none;" parent="1" vertex="1">
          <mxGeometry x="970" y="680" width="30" height="30" as="geometry" />
        </mxCell>
        <mxCell id="9FH_6vf23S6A9Upz6f67-12" value="1" style="text;html=1;align=center;verticalAlign=middle;resizable=0;points=[];autosize=1;strokeColor=none;fillColor=none;" parent="1" vertex="1">
          <mxGeometry x="1030" y="680" width="30" height="30" as="geometry" />
        </mxCell>
        <mxCell id="9FH_6vf23S6A9Upz6f67-13" value="1" style="text;html=1;align=center;verticalAlign=middle;resizable=0;points=[];autosize=1;strokeColor=none;fillColor=none;" parent="1" vertex="1">
          <mxGeometry x="875" y="768" width="30" height="30" as="geometry" />
        </mxCell>
        <mxCell id="9FH_6vf23S6A9Upz6f67-14" value="1" style="text;html=1;align=center;verticalAlign=middle;resizable=0;points=[];autosize=1;strokeColor=none;fillColor=none;" parent="1" vertex="1">
          <mxGeometry x="930" y="880" width="30" height="30" as="geometry" />
        </mxCell>
        <mxCell id="9FH_6vf23S6A9Upz6f67-15" value="1" style="text;html=1;align=center;verticalAlign=middle;resizable=0;points=[];autosize=1;strokeColor=none;fillColor=none;" parent="1" vertex="1">
          <mxGeometry x="1155" y="768" width="30" height="30" as="geometry" />
        </mxCell>
        <mxCell id="9FH_6vf23S6A9Upz6f67-16" value="1" style="text;html=1;align=center;verticalAlign=middle;resizable=0;points=[];autosize=1;strokeColor=none;fillColor=none;" parent="1" vertex="1">
          <mxGeometry x="1015" y="888" width="30" height="30" as="geometry" />
        </mxCell>
      </root>
    </mxGraphModel>
  </diagram>
  <diagram id="D9Z2qMC8AohehiB1mSBT" name="Thay đổi thông tin">
    <mxGraphModel dx="1362" dy="843" grid="1" gridSize="10" guides="1" tooltips="1" connect="1" arrows="1" fold="1" page="1" pageScale="1" pageWidth="850" pageHeight="1100" math="0" shadow="0">
      <root>
        <mxCell id="0" />
        <mxCell id="1" parent="0" />
        <mxCell id="AUnA3u9fwUhJKqdv651_-1" style="edgeStyle=orthogonalEdgeStyle;rounded=0;orthogonalLoop=1;jettySize=auto;html=1;endArrow=none;startFill=0;" parent="1" source="AUnA3u9fwUhJKqdv651_-2" target="AUnA3u9fwUhJKqdv651_-5" edge="1">
          <mxGeometry relative="1" as="geometry" />
        </mxCell>
        <mxCell id="AUnA3u9fwUhJKqdv651_-2" value="&lt;p style=&quot;margin:0px;margin-top:4px;text-align:center;&quot;&gt;&lt;i&gt;&amp;lt;&amp;lt;boundary&amp;gt;&amp;gt;&lt;/i&gt;&lt;br&gt;&lt;b&gt;ChangeInfoForm&lt;/b&gt;&lt;/p&gt;&lt;hr size=&quot;1&quot; style=&quot;border-style:solid;&quot;&gt;&lt;p style=&quot;margin:0px;margin-left:4px;&quot;&gt;&lt;br&gt;&lt;br&gt;&lt;/p&gt;&lt;hr size=&quot;1&quot; style=&quot;border-style:solid;&quot;&gt;&lt;p style=&quot;margin:0px;margin-left:4px;&quot;&gt;displayForm()&lt;/p&gt;&lt;p style=&quot;margin:0px;margin-left:4px;&quot;&gt;checkValid()&lt;/p&gt;&lt;p style=&quot;margin:0px;margin-left:4px;&quot;&gt;displayAlert()&lt;/p&gt;" style="verticalAlign=top;align=left;overflow=fill;html=1;whiteSpace=wrap;" parent="1" vertex="1">
          <mxGeometry x="440" y="590" width="190" height="140" as="geometry" />
        </mxCell>
        <mxCell id="AUnA3u9fwUhJKqdv651_-3" style="edgeStyle=orthogonalEdgeStyle;rounded=0;orthogonalLoop=1;jettySize=auto;html=1;endArrow=none;startFill=0;" parent="1" source="AUnA3u9fwUhJKqdv651_-5" target="AUnA3u9fwUhJKqdv651_-7" edge="1">
          <mxGeometry relative="1" as="geometry" />
        </mxCell>
        <mxCell id="AUnA3u9fwUhJKqdv651_-4" style="edgeStyle=orthogonalEdgeStyle;rounded=0;orthogonalLoop=1;jettySize=auto;html=1;endArrow=none;startFill=0;entryX=0.211;entryY=0.013;entryDx=0;entryDy=0;entryPerimeter=0;" parent="1" source="AUnA3u9fwUhJKqdv651_-5" target="AUnA3u9fwUhJKqdv651_-8" edge="1">
          <mxGeometry relative="1" as="geometry" />
        </mxCell>
        <mxCell id="AUnA3u9fwUhJKqdv651_-5" value="&lt;p style=&quot;margin:0px;margin-top:4px;text-align:center;&quot;&gt;&lt;i&gt;&amp;lt;&amp;lt;controller&amp;gt;&amp;gt;&lt;/i&gt;&lt;br&gt;&lt;b&gt;UserController&lt;/b&gt;&lt;/p&gt;&lt;hr size=&quot;1&quot; style=&quot;border-style:solid;&quot;&gt;&lt;p style=&quot;margin:0px;margin-left:4px;&quot;&gt;&lt;br&gt;&lt;br&gt;&lt;/p&gt;&lt;hr size=&quot;1&quot; style=&quot;border-style:solid;&quot;&gt;&lt;p style=&quot;margin:0px;margin-left:4px;&quot;&gt;updateInfo()&lt;/p&gt;&lt;p style=&quot;margin:0px;margin-left:4px;&quot;&gt;creatUser()&lt;/p&gt;&lt;p style=&quot;margin:0px;margin-left:4px;&quot;&gt;checkInfo()&lt;/p&gt;" style="verticalAlign=top;align=left;overflow=fill;html=1;whiteSpace=wrap;" parent="1" vertex="1">
          <mxGeometry x="710" y="590" width="190" height="140" as="geometry" />
        </mxCell>
        <mxCell id="AUnA3u9fwUhJKqdv651_-6" style="edgeStyle=orthogonalEdgeStyle;rounded=0;orthogonalLoop=1;jettySize=auto;html=1;endArrow=none;startFill=0;" parent="1" source="AUnA3u9fwUhJKqdv651_-7" target="AUnA3u9fwUhJKqdv651_-8" edge="1">
          <mxGeometry relative="1" as="geometry">
            <Array as="points">
              <mxPoint x="1085" y="800" />
              <mxPoint x="970" y="800" />
            </Array>
          </mxGeometry>
        </mxCell>
        <mxCell id="AUnA3u9fwUhJKqdv651_-7" value="&lt;p style=&quot;margin:0px;margin-top:4px;text-align:center;&quot;&gt;&lt;i&gt;&amp;lt;&amp;lt;boundary&amp;gt;&amp;gt;&lt;/i&gt;&lt;br&gt;&lt;b&gt;UserDatabase&lt;/b&gt;&lt;/p&gt;&lt;hr size=&quot;1&quot; style=&quot;border-style:solid;&quot;&gt;&lt;p style=&quot;margin:0px;margin-left:4px;&quot;&gt;&lt;br&gt;&lt;br&gt;&lt;/p&gt;&lt;hr size=&quot;1&quot; style=&quot;border-style:solid;&quot;&gt;&lt;p style=&quot;margin:0px;margin-left:4px;&quot;&gt;updateUser()&lt;/p&gt;&lt;p style=&quot;margin:0px;margin-left:4px;&quot;&gt;&lt;br&gt;&lt;/p&gt;" style="verticalAlign=top;align=left;overflow=fill;html=1;whiteSpace=wrap;" parent="1" vertex="1">
          <mxGeometry x="990" y="590" width="190" height="140" as="geometry" />
        </mxCell>
        <mxCell id="AUnA3u9fwUhJKqdv651_-8" value="&lt;p style=&quot;margin:0px;margin-top:4px;text-align:center;&quot;&gt;&lt;i&gt;&amp;lt;&amp;lt;entity&amp;gt;&amp;gt;&lt;/i&gt;&lt;br&gt;&lt;b&gt;User&lt;/b&gt;&lt;/p&gt;&lt;hr size=&quot;1&quot; style=&quot;border-style:solid;&quot;&gt;&lt;p style=&quot;margin:0px;margin-left:4px;&quot;&gt;username&lt;/p&gt;&lt;p style=&quot;margin:0px;margin-left:4px;&quot;&gt;phonenumber&lt;/p&gt;&lt;p style=&quot;margin:0px;margin-left:4px;&quot;&gt;gmail&lt;/p&gt;&lt;p style=&quot;margin:0px;margin-left:4px;&quot;&gt;password&lt;/p&gt;&lt;hr size=&quot;1&quot; style=&quot;border-style:solid;&quot;&gt;&lt;p style=&quot;margin:0px;margin-left:4px;&quot;&gt;&lt;br&gt;&lt;/p&gt;" style="verticalAlign=top;align=left;overflow=fill;html=1;whiteSpace=wrap;" parent="1" vertex="1">
          <mxGeometry x="820" y="870" width="190" height="150" as="geometry" />
        </mxCell>
        <mxCell id="AUnA3u9fwUhJKqdv651_-9" value="1" style="text;html=1;align=center;verticalAlign=middle;resizable=0;points=[];autosize=1;strokeColor=none;fillColor=none;" parent="1" vertex="1">
          <mxGeometry x="625" y="640" width="30" height="30" as="geometry" />
        </mxCell>
        <mxCell id="AUnA3u9fwUhJKqdv651_-10" value="1" style="text;html=1;align=center;verticalAlign=middle;resizable=0;points=[];autosize=1;strokeColor=none;fillColor=none;" parent="1" vertex="1">
          <mxGeometry x="680" y="640" width="30" height="30" as="geometry" />
        </mxCell>
        <mxCell id="AUnA3u9fwUhJKqdv651_-11" value="1" style="text;html=1;align=center;verticalAlign=middle;resizable=0;points=[];autosize=1;strokeColor=none;fillColor=none;" parent="1" vertex="1">
          <mxGeometry x="900" y="640" width="30" height="30" as="geometry" />
        </mxCell>
        <mxCell id="AUnA3u9fwUhJKqdv651_-12" value="1" style="text;html=1;align=center;verticalAlign=middle;resizable=0;points=[];autosize=1;strokeColor=none;fillColor=none;" parent="1" vertex="1">
          <mxGeometry x="960" y="640" width="30" height="30" as="geometry" />
        </mxCell>
        <mxCell id="AUnA3u9fwUhJKqdv651_-13" value="1" style="text;html=1;align=center;verticalAlign=middle;resizable=0;points=[];autosize=1;strokeColor=none;fillColor=none;" parent="1" vertex="1">
          <mxGeometry x="805" y="728" width="30" height="30" as="geometry" />
        </mxCell>
        <mxCell id="AUnA3u9fwUhJKqdv651_-14" value="1" style="text;html=1;align=center;verticalAlign=middle;resizable=0;points=[];autosize=1;strokeColor=none;fillColor=none;" parent="1" vertex="1">
          <mxGeometry x="860" y="840" width="30" height="30" as="geometry" />
        </mxCell>
        <mxCell id="AUnA3u9fwUhJKqdv651_-15" value="1" style="text;html=1;align=center;verticalAlign=middle;resizable=0;points=[];autosize=1;strokeColor=none;fillColor=none;" parent="1" vertex="1">
          <mxGeometry x="1085" y="728" width="30" height="30" as="geometry" />
        </mxCell>
        <mxCell id="AUnA3u9fwUhJKqdv651_-16" value="1" style="text;html=1;align=center;verticalAlign=middle;resizable=0;points=[];autosize=1;strokeColor=none;fillColor=none;" parent="1" vertex="1">
          <mxGeometry x="945" y="848" width="30" height="30" as="geometry" />
        </mxCell>
      </root>
    </mxGraphModel>
  </diagram>
  <diagram id="h85zTD3BBzEqguTfELKD" name="Xóa tài khoản">
    <mxGraphModel dx="1362" dy="843" grid="1" gridSize="10" guides="1" tooltips="1" connect="1" arrows="1" fold="1" page="1" pageScale="1" pageWidth="850" pageHeight="1100" math="0" shadow="0">
      <root>
        <mxCell id="0" />
        <mxCell id="1" parent="0" />
        <mxCell id="J-iS977GKzkXGSRL98Er-1" style="edgeStyle=orthogonalEdgeStyle;rounded=0;orthogonalLoop=1;jettySize=auto;html=1;endArrow=none;startFill=0;" parent="1" source="J-iS977GKzkXGSRL98Er-2" target="J-iS977GKzkXGSRL98Er-5" edge="1">
          <mxGeometry relative="1" as="geometry" />
        </mxCell>
        <mxCell id="J-iS977GKzkXGSRL98Er-2" value="&lt;p style=&quot;margin:0px;margin-top:4px;text-align:center;&quot;&gt;&lt;i&gt;&amp;lt;&amp;lt;boundary&amp;gt;&amp;gt;&lt;/i&gt;&lt;br&gt;&lt;b&gt;DeleteAccountForm&lt;/b&gt;&lt;/p&gt;&lt;hr size=&quot;1&quot; style=&quot;border-style:solid;&quot;&gt;&lt;p style=&quot;margin:0px;margin-left:4px;&quot;&gt;&lt;br&gt;&lt;br&gt;&lt;/p&gt;&lt;hr size=&quot;1&quot; style=&quot;border-style:solid;&quot;&gt;&lt;p style=&quot;margin:0px;margin-left:4px;&quot;&gt;display()&lt;/p&gt;&lt;p style=&quot;margin:0px;margin-left:4px;&quot;&gt;confirmDelete()&lt;/p&gt;" style="verticalAlign=top;align=left;overflow=fill;html=1;whiteSpace=wrap;" parent="1" vertex="1">
          <mxGeometry x="370" y="440" width="190" height="140" as="geometry" />
        </mxCell>
        <mxCell id="J-iS977GKzkXGSRL98Er-3" style="edgeStyle=orthogonalEdgeStyle;rounded=0;orthogonalLoop=1;jettySize=auto;html=1;endArrow=none;startFill=0;" parent="1" source="J-iS977GKzkXGSRL98Er-5" target="J-iS977GKzkXGSRL98Er-7" edge="1">
          <mxGeometry relative="1" as="geometry" />
        </mxCell>
        <mxCell id="J-iS977GKzkXGSRL98Er-5" value="&lt;p style=&quot;margin:0px;margin-top:4px;text-align:center;&quot;&gt;&lt;i&gt;&amp;lt;&amp;lt;controller&amp;gt;&amp;gt;&lt;/i&gt;&lt;br&gt;&lt;b&gt;UserController&lt;/b&gt;&lt;/p&gt;&lt;hr size=&quot;1&quot; style=&quot;border-style:solid;&quot;&gt;&lt;p style=&quot;margin:0px;margin-left:4px;&quot;&gt;&lt;br&gt;&lt;br&gt;&lt;/p&gt;&lt;hr size=&quot;1&quot; style=&quot;border-style:solid;&quot;&gt;&lt;p style=&quot;margin:0px;margin-left:4px;&quot;&gt;askForDeleleAccout()&lt;/p&gt;" style="verticalAlign=top;align=left;overflow=fill;html=1;whiteSpace=wrap;" parent="1" vertex="1">
          <mxGeometry x="640" y="440" width="190" height="140" as="geometry" />
        </mxCell>
        <mxCell id="J-iS977GKzkXGSRL98Er-7" value="&lt;p style=&quot;margin:0px;margin-top:4px;text-align:center;&quot;&gt;&lt;i&gt;&amp;lt;&amp;lt;boundary&amp;gt;&amp;gt;&lt;/i&gt;&lt;br&gt;&lt;b&gt;UserDatabase&lt;/b&gt;&lt;/p&gt;&lt;hr size=&quot;1&quot; style=&quot;border-style:solid;&quot;&gt;&lt;p style=&quot;margin:0px;margin-left:4px;&quot;&gt;&lt;br&gt;&lt;br&gt;&lt;/p&gt;&lt;hr size=&quot;1&quot; style=&quot;border-style:solid;&quot;&gt;&lt;p style=&quot;margin:0px;margin-left:4px;&quot;&gt;deteleUser()&lt;/p&gt;" style="verticalAlign=top;align=left;overflow=fill;html=1;whiteSpace=wrap;" parent="1" vertex="1">
          <mxGeometry x="920" y="440" width="190" height="140" as="geometry" />
        </mxCell>
        <mxCell id="J-iS977GKzkXGSRL98Er-9" value="1" style="text;html=1;align=center;verticalAlign=middle;resizable=0;points=[];autosize=1;strokeColor=none;fillColor=none;" parent="1" vertex="1">
          <mxGeometry x="555" y="490" width="30" height="30" as="geometry" />
        </mxCell>
        <mxCell id="J-iS977GKzkXGSRL98Er-10" value="1" style="text;html=1;align=center;verticalAlign=middle;resizable=0;points=[];autosize=1;strokeColor=none;fillColor=none;" parent="1" vertex="1">
          <mxGeometry x="610" y="490" width="30" height="30" as="geometry" />
        </mxCell>
        <mxCell id="J-iS977GKzkXGSRL98Er-11" value="1" style="text;html=1;align=center;verticalAlign=middle;resizable=0;points=[];autosize=1;strokeColor=none;fillColor=none;" parent="1" vertex="1">
          <mxGeometry x="830" y="490" width="30" height="30" as="geometry" />
        </mxCell>
        <mxCell id="J-iS977GKzkXGSRL98Er-12" value="1" style="text;html=1;align=center;verticalAlign=middle;resizable=0;points=[];autosize=1;strokeColor=none;fillColor=none;" parent="1" vertex="1">
          <mxGeometry x="890" y="490" width="30" height="30" as="geometry" />
        </mxCell>
      </root>
    </mxGraphModel>
  </diagram>
  <diagram id="S4arNgWozBvu3A4U0Eu9" name="Thay đổi ngôn ngữ">
    <mxGraphModel dx="1362" dy="843" grid="1" gridSize="10" guides="1" tooltips="1" connect="1" arrows="1" fold="1" page="1" pageScale="1" pageWidth="850" pageHeight="1100" math="0" shadow="0">
      <root>
        <mxCell id="0" />
        <mxCell id="1" parent="0" />
        <mxCell id="4w1VLak9-TPjsCx20N1--1" style="edgeStyle=orthogonalEdgeStyle;rounded=0;orthogonalLoop=1;jettySize=auto;html=1;endArrow=none;startFill=0;" parent="1" source="4w1VLak9-TPjsCx20N1--2" target="4w1VLak9-TPjsCx20N1--5" edge="1">
          <mxGeometry relative="1" as="geometry" />
        </mxCell>
        <mxCell id="4w1VLak9-TPjsCx20N1--2" value="&lt;p style=&quot;margin:0px;margin-top:4px;text-align:center;&quot;&gt;&lt;i&gt;&amp;lt;&amp;lt;boundary&amp;gt;&amp;gt;&lt;/i&gt;&lt;br&gt;&lt;b&gt;LanguageView&lt;/b&gt;&lt;/p&gt;&lt;hr size=&quot;1&quot; style=&quot;border-style:solid;&quot;&gt;&lt;p style=&quot;margin:0px;margin-left:4px;&quot;&gt;&lt;br&gt;&lt;br&gt;&lt;/p&gt;&lt;hr size=&quot;1&quot; style=&quot;border-style:solid;&quot;&gt;&lt;p style=&quot;margin:0px;margin-left:4px;&quot;&gt;displayLanguage()&lt;/p&gt;" style="verticalAlign=top;align=left;overflow=fill;html=1;whiteSpace=wrap;" parent="1" vertex="1">
          <mxGeometry x="390" y="130" width="190" height="140" as="geometry" />
        </mxCell>
        <mxCell id="4w1VLak9-TPjsCx20N1--5" value="&lt;p style=&quot;margin:0px;margin-top:4px;text-align:center;&quot;&gt;&lt;i&gt;&amp;lt;&amp;lt;controller&amp;gt;&amp;gt;&lt;/i&gt;&lt;br&gt;&lt;b&gt;LanguageController&lt;/b&gt;&lt;/p&gt;&lt;hr size=&quot;1&quot; style=&quot;border-style:solid;&quot;&gt;&lt;p style=&quot;margin:0px;margin-left:4px;&quot;&gt;&lt;br&gt;&lt;br&gt;&lt;/p&gt;&lt;hr size=&quot;1&quot; style=&quot;border-style:solid;&quot;&gt;&lt;p style=&quot;margin:0px;margin-left:4px;&quot;&gt;changeLanguage()&lt;/p&gt;" style="verticalAlign=top;align=left;overflow=fill;html=1;whiteSpace=wrap;" parent="1" vertex="1">
          <mxGeometry x="660" y="130" width="190" height="140" as="geometry" />
        </mxCell>
        <mxCell id="4w1VLak9-TPjsCx20N1--9" value="1" style="text;html=1;align=center;verticalAlign=middle;resizable=0;points=[];autosize=1;strokeColor=none;fillColor=none;" parent="1" vertex="1">
          <mxGeometry x="575" y="180" width="30" height="30" as="geometry" />
        </mxCell>
        <mxCell id="4w1VLak9-TPjsCx20N1--10" value="1" style="text;html=1;align=center;verticalAlign=middle;resizable=0;points=[];autosize=1;strokeColor=none;fillColor=none;" parent="1" vertex="1">
          <mxGeometry x="630" y="180" width="30" height="30" as="geometry" />
        </mxCell>
      </root>
    </mxGraphModel>
  </diagram>
</mxfile>
